<?xml version="1.0" encoding="UTF-8"?>
<svg id="b" data-name="레이어 2" xmlns="http://www.w3.org/2000/svg" width="325.881" height="209.643" viewBox="0 0 325.881 209.643">
  <g id="c" data-name="레이어 1">
    <g>
      <path d="M47.276,39.23h10.56c2.272,0,4.346-.531,6.215-1.595,1.87-1.062,3.337-2.53,4.4-4.4,1.062-1.87,1.595-3.941,1.595-6.215,0-2.346-.55-4.455-1.649-6.325-1.101-1.87-2.585-3.317-4.455-4.345-1.87-1.026-3.905-1.54-6.105-1.54-2.273,0-4.363.514-6.27,1.54-1.908,1.028-3.41,2.494-4.51,4.4-1.101,1.908-1.65,3.998-1.65,6.27v.33h-12.87v-.33c0-4.692,1.101-8.946,3.3-12.76,2.2-3.812,5.226-6.82,9.075-9.02,3.851-2.2,8.157-3.3,12.925-3.3,4.692,0,8.928,1.083,12.705,3.245,3.776,2.164,6.746,5.17,8.91,9.02,2.162,3.85,3.245,8.085,3.245,12.705,0,4.694-1.1,8.965-3.3,12.815s-5.189,6.875-8.965,9.075c-3.778,2.2-7.976,3.3-12.596,3.3h-2.31l-6.601,15.95h30.91v12.76H30.666l16.61-41.58Z" fill="#a4ffbc" stroke-width="0"/>
      <path d="M195.225,39.23h10.561c2.271,0,4.345-.531,6.215-1.595,1.87-1.062,3.336-2.53,4.399-4.4,1.062-1.87,1.596-3.941,1.596-6.215,0-2.346-.551-4.455-1.65-6.325-1.1-1.87-2.585-3.317-4.455-4.345-1.87-1.026-3.905-1.54-6.104-1.54-2.274,0-4.364.514-6.271,1.54-1.908,1.028-3.41,2.494-4.51,4.4-1.101,1.908-1.65,3.998-1.65,6.27v.33h-12.87v-.33c0-4.692,1.101-8.946,3.301-12.76,2.199-3.812,5.225-6.82,9.074-9.02,3.851-2.2,8.157-3.3,12.926-3.3,4.691,0,8.927,1.083,12.704,3.245,3.776,2.164,6.746,5.17,8.91,9.02,2.162,3.85,3.245,8.085,3.245,12.705,0,4.694-1.1,8.965-3.3,12.815s-5.188,6.875-8.965,9.075c-3.778,2.2-7.976,3.3-12.595,3.3h-2.311l-6.6,15.95h30.91v12.76h-49.171l16.61-41.58Z" fill="#a4ffbc" stroke-width="0"/>
      <path d="M252.59,78.28c-4.363-2.42-7.81-5.775-10.34-10.065-2.53-4.29-3.795-9.075-3.795-14.355,0-2.932.567-6.031,1.705-9.295,1.136-3.262,2.695-6.397,4.675-9.405l21.12-32.01h15.18l-16.279,23.21c5.352-.44,10.34.459,14.96,2.695,4.62,2.238,8.322,5.5,11.109,9.79,2.786,4.29,4.181,9.185,4.181,14.685,0,5.208-1.21,9.974-3.63,14.3-2.42,4.328-5.794,7.755-10.12,10.285-4.328,2.53-9.13,3.795-14.41,3.795-5.208,0-9.993-1.21-14.355-3.63ZM274.92,67.39c2.383-1.466,4.271-3.41,5.665-5.83,1.393-2.42,2.09-5.096,2.09-8.03s-.715-5.591-2.145-7.975c-1.43-2.382-3.374-4.252-5.83-5.61-2.458-1.356-5.152-2.035-8.085-2.035s-5.61.698-8.03,2.09c-2.42,1.394-4.309,3.319-5.665,5.775-1.357,2.458-2.035,5.115-2.035,7.975,0,3.008.716,5.703,2.146,8.085,1.43,2.384,3.372,4.273,5.83,5.665,2.456,1.394,5.151,2.09,8.085,2.09s5.591-.732,7.975-2.2Z" fill="#a4ffbc" stroke-width="0"/>
    </g>
    <g>
      <path d="M18.224,88.046h.134l17.019,40.2,12.193-36.314h7.236l-15.477,47.302h-7.639l-12.462-30.217-10.251,30.217H1.206l17.018-51.188Z" fill="#a4ffbc" stroke-width="0"/>
      <path d="M62.31,137.391c-2.725-1.585-4.88-3.741-6.465-6.466-1.586-2.724-2.379-5.695-2.379-8.911s.793-6.174,2.379-8.877c1.585-2.702,3.74-4.846,6.465-6.432,2.725-1.585,5.695-2.379,8.911-2.379,3.439,0,6.566.871,9.38,2.613,2.814,1.742,4.958,4.121,6.433,7.135,1.474,3.015,2.054,6.332,1.742,9.95h-31.624v-4.757h26.465l-2.211,2.01c-.09-1.786-.593-3.417-1.508-4.891-.916-1.474-2.134-2.624-3.651-3.45-1.52-.826-3.194-1.24-5.025-1.24-1.876,0-3.618.458-5.226,1.374-1.608.916-2.871,2.167-3.785,3.752-.916,1.586-1.374,3.316-1.374,5.192s.458,3.618,1.374,5.226c.914,1.608,2.177,2.871,3.785,3.786,1.607.916,3.35,1.374,5.226,1.374,1.786,0,3.417-.424,4.892-1.273,1.474-.848,2.635-2.032,3.483-3.551h8.442c-1.206,3.618-3.34,6.556-6.398,8.811-3.061,2.256-6.532,3.384-10.419,3.384-3.216,0-6.187-.792-8.911-2.378Z" fill="#a4ffbc" stroke-width="0"/>
      <path d="M89.98,104.863h8.777l7.37,19.363,9.111-18.693h.134l9.18,18.693,7.303-19.363h8.844l-15.075,36.783h-.134l-10.184-20.368-10.117,20.368h-.134l-15.075-36.783Z" fill="#a4ffbc" stroke-width="0"/>
      <path d="M165.22,115.18l-10.05-23.249h8.04l5.896,14.74,5.896-14.74h8.04l-9.982,23.249v24.053h-7.839v-24.053Z" fill="#a4ffbc" stroke-width="0"/>
      <path d="M190.545,137.391c-2.726-1.585-4.881-3.741-6.466-6.466-1.586-2.724-2.379-5.695-2.379-8.911s.793-6.174,2.379-8.877c1.585-2.702,3.74-4.846,6.466-6.432,2.724-1.585,5.694-2.379,8.911-2.379,3.438,0,6.565.871,9.38,2.613,2.813,1.742,4.958,4.121,6.432,7.135,1.474,3.015,2.054,6.332,1.742,9.95h-31.624v-4.757h26.465l-2.211,2.01c-.09-1.786-.593-3.417-1.508-4.891-.916-1.474-2.133-2.624-3.651-3.45-1.519-.826-3.193-1.24-5.024-1.24-1.876,0-3.618.458-5.227,1.374-1.607.916-2.87,2.167-3.785,3.752-.916,1.586-1.374,3.316-1.374,5.192s.458,3.618,1.374,5.226c.915,1.608,2.178,2.871,3.785,3.786,1.608.916,3.351,1.374,5.227,1.374,1.785,0,3.417-.424,4.891-1.273,1.474-.848,2.635-2.032,3.484-3.551h8.441c-1.206,3.618-3.339,6.556-6.398,8.811-3.06,2.256-6.532,3.384-10.418,3.384-3.217,0-6.188-.792-8.911-2.378Z" fill="#a4ffbc" stroke-width="0"/>
      <path d="M230.275,137.391c-2.726-1.585-4.881-3.741-6.466-6.466-1.586-2.724-2.379-5.695-2.379-8.911s.793-6.174,2.379-8.877c1.585-2.702,3.74-4.846,6.466-6.432,2.724-1.585,5.694-2.379,8.911-2.379s6.174.794,8.877,2.379c2.702,1.586,4.846,3.73,6.433,6.432,1.585,2.703,2.378,5.662,2.378,8.877s-.793,6.188-2.378,8.911c-1.587,2.725-3.73,4.881-6.433,6.466-2.703,1.586-5.661,2.378-8.877,2.378s-6.188-.792-8.911-2.378ZM244.278,130.892c1.562-.915,2.803-2.166,3.719-3.752.914-1.585,1.373-3.294,1.373-5.126s-.459-3.528-1.373-5.092c-.916-1.563-2.156-2.802-3.719-3.718-1.564-.915-3.261-1.374-5.092-1.374s-3.541.458-5.126,1.374c-1.586.916-2.837,2.155-3.752,3.718-.916,1.564-1.373,3.261-1.373,5.092,0,1.876.457,3.596,1.373,5.159.915,1.564,2.154,2.804,3.719,3.719,1.562.916,3.283,1.374,5.159,1.374,1.831,0,3.527-.458,5.092-1.374ZM251.715,104.863h5.092v34.371h-5.092v-34.371Z" fill="#a4ffbc" stroke-width="0"/>
      <path d="M264.913,104.863h5.093v6.097l14.807-6.834v8.174l-12.127,5.762v21.172h-7.772v-34.371Z" fill="#a4ffbc" stroke-width="0"/>
      <path d="M288.898,91.932h6.968l-2.881,17.889h-4.757l.67-17.889Z" fill="#a4ffbc" stroke-width="0"/>
      <path d="M301.896,137.291c-2.278-1.965-3.417-4.533-3.417-7.705v-.268h8.174v.469c0,1.162.412,2.133,1.239,2.914.826.782,1.865,1.173,3.116,1.173,1.205,0,2.232-.391,3.082-1.173.848-.781,1.272-1.752,1.272-2.914,0-1.206-.413-2.188-1.239-2.948-.827-.759-1.865-1.139-3.115-1.139-2.412,0-4.546-.502-6.399-1.507s-3.282-2.333-4.287-3.986c-1.006-1.652-1.508-3.461-1.508-5.427s.502-3.786,1.508-5.46c1.005-1.675,2.422-3.003,4.254-3.986,1.831-.982,3.976-1.474,6.433-1.474,2.321,0,4.388.458,6.197,1.374,1.809.916,3.216,2.189,4.221,3.819,1.005,1.631,1.508,3.474,1.508,5.528v.268h-7.438v-.536c0-1.116-.436-2.077-1.307-2.881-.87-.804-1.909-1.206-3.115-1.206-1.251,0-2.301.402-3.148,1.206-.85.804-1.273,1.765-1.273,2.881,0,1.206.402,2.2,1.206,2.981.804.782,1.853,1.195,3.149,1.239,2.501.09,4.689.626,6.565,1.608,1.876.983,3.316,2.301,4.321,3.953,1.005,1.653,1.508,3.462,1.508,5.427s-.514,3.775-1.541,5.427c-1.028,1.653-2.469,2.948-4.321,3.886-1.854.938-4.031,1.407-6.532,1.407-3.798,0-6.834-.983-9.112-2.948Z" fill="#a4ffbc" stroke-width="0"/>
      <path d="M110.112,191.922c-3.752-2.166-6.712-5.114-8.878-8.844-2.167-3.729-3.249-7.895-3.249-12.496s1.082-8.766,3.249-12.496c2.166-3.729,5.126-6.677,8.878-8.844,3.752-2.166,7.928-3.25,12.529-3.25v7.571c-3.173,0-6.054.749-8.644,2.245-2.591,1.497-4.635,3.541-6.131,6.13-1.496,2.591-2.244,5.472-2.244,8.643s.748,6.053,2.244,8.643c1.496,2.591,3.54,4.634,6.131,6.13,2.59,1.497,5.471,2.245,8.644,2.245v7.571c-4.602,0-8.777-1.083-12.529-3.25Z" fill="#a4ffbc" stroke-width="0"/>
      <path d="M134.299,192.391c-2.725-1.585-4.881-3.741-6.466-6.466-1.586-2.724-2.378-5.695-2.378-8.911s.792-6.174,2.378-8.877c1.585-2.702,3.741-4.846,6.466-6.432,2.724-1.585,5.695-2.379,8.911-2.379s6.174.794,8.877,2.379c2.702,1.586,4.847,3.73,6.433,6.432,1.585,2.703,2.378,5.662,2.378,8.877s-.793,6.188-2.378,8.911c-1.586,2.725-3.73,4.881-6.433,6.466-2.703,1.586-5.661,2.378-8.877,2.378s-6.188-.792-8.911-2.378ZM148.302,185.892c1.563-.915,2.803-2.166,3.719-3.752.915-1.585,1.373-3.294,1.373-5.126s-.458-3.528-1.373-5.092c-.916-1.563-2.155-2.802-3.719-3.718-1.564-.915-3.261-1.374-5.092-1.374s-3.541.458-5.126,1.374c-1.586.916-2.837,2.155-3.752,3.718-.916,1.564-1.373,3.261-1.373,5.092,0,1.876.457,3.596,1.373,5.159.915,1.564,2.154,2.804,3.719,3.719,1.563.916,3.283,1.374,5.159,1.374,1.831,0,3.527-.458,5.092-1.374ZM155.739,159.863h5.092v34.371h-5.092v-34.371Z" fill="#a4ffbc" stroke-width="0"/>
      <path d="M168.937,159.863h5.093v6.097l14.807-6.834v8.174l-12.127,5.762v21.172h-7.772v-34.371Z" fill="#a4ffbc" stroke-width="0"/>
      <path d="M208.333,194.77c-3.216,0-6.176-.792-8.878-2.378-2.702-1.585-4.847-3.741-6.432-6.466-1.586-2.724-2.379-5.695-2.379-8.911s.793-6.174,2.379-8.877c1.585-2.702,3.729-4.846,6.432-6.432,2.702-1.585,5.662-2.379,8.878-2.379s6.186.794,8.911,2.379c2.724,1.586,4.879,3.73,6.466,6.432,1.585,2.703,2.378,5.662,2.378,8.877s-.793,6.188-2.378,8.911c-1.587,2.725-3.742,4.881-6.466,6.466-2.726,1.586-5.695,2.378-8.911,2.378ZM208.333,187.266c1.876,0,3.595-.458,5.159-1.374,1.562-.915,2.803-2.155,3.719-3.719.914-1.563,1.373-3.283,1.373-5.159,0-1.831-.459-3.528-1.373-5.092-.916-1.563-2.168-2.802-3.753-3.718-1.586-.915-3.294-1.374-5.125-1.374s-3.529.458-5.092,1.374c-1.564.916-2.804,2.155-3.719,3.718-.916,1.564-1.373,3.261-1.373,5.092s.457,3.541,1.373,5.126c.915,1.586,2.154,2.837,3.719,3.752,1.562.916,3.26,1.374,5.092,1.374ZM226.088,194.234h-5.092v-15.678l-2.412-1.005v-30.619h7.504v47.302Z" fill="#a4ffbc" stroke-width="0"/>
    </g>
    <path d="M131.107,0c-.01,0-.021,0-.03,0-.003,0-.006,0-.009,0-.008,0-.013,0-.022,0-.004,0-.007,0-.01,0-.008,0-.015,0-.024,0-.002,0-.004,0-.007,0-.011,0-.019,0-.03,0-.002,0-.005,0-.008,0-.008,0-.015,0-.024,0-.003,0-.006,0-.009,0-.008,0-.014,0-.023,0-.003,0-.006,0-.009,0-.01,0-.02,0-.03,0h0c-.01,0-.021,0-.031,0-.003,0-.006,0-.009,0-.007,0-.015,0-.022,0-.003,0-.006,0-.009,0-.008,0-.016,0-.024,0-.002,0-.005,0-.007,0-.011,0-.019,0-.031,0-.002,0-.004,0-.005,0-.008,0-.016,0-.025,0-.003,0-.007,0-.01,0-.008,0-.014,0-.022,0-.003,0-.006,0-.009,0-.008,0-.017,0-.025,0-.002,0-.003,0-.005,0-.01,0-.02,0-.03,0-.003,0-.006,0-.009,0-.007,0-.014,0-.021,0-.004,0-.008,0-.011,0-.007,0-.014,0-.021,0-.003,0-.006,0-.009,0-.01,0-.02,0-.03,0-.002,0-.004,0-.006,0-.008,0-.017,0-.025,0-.003,0-.006,0-.009,0-.007,0-.014,0-.021,0-.004,0-.007,0-.011,0-.008,0-.016,0-.025,0-.002,0-.004,0-.005,0-.011,0-.02,0-.031,0-.002,0-.005,0-.007,0-.008,0-.015,0-.023,0-.003,0-.007,0-.01,0-.007,0-.015,0-.022,0-.003,0-.006,0-.009,0-.019,0-.041,0-.06.001-.003,0-.006,0-.009,0-.008,0-.013,0-.022,0-.003,0-.007,0-.01,0-.008,0-.014,0-.023,0-.003,0-.005,0-.008,0-.011,0-.019,0-.03,0-.003,0-.005,0-.008,0-.007,0-.015,0-.022,0-.004,0-.008,0-.011,0-.006,0-.014,0-.02,0-.004,0-.007,0-.011,0-.008,0-.016,0-.025,0-.004,0-.006,0-.01,0-.008,0-.017,0-.025,0-.004,0-.007,0-.011,0-.007,0-.013,0-.02,0-.004,0-.007,0-.011,0-.007,0-.015,0-.022,0-.003,0-.006,0-.009,0-.01,0-.019,0-.029,0-.003,0-.006,0-.01,0-.007,0-.014,0-.021,0-.004,0-.007,0-.011,0-.007,0-.014,0-.021,0-.004,0-.007,0-.011,0-.008,0-.015,0-.024,0-.002,0-.004,0-.006,0-.01,0-.019,0-.029,0-.004,0-.008,0-.012,0-.007,0-.012,0-.019,0-.004,0-.008,0-.012,0-.007,0-.012,0-.019,0-.004,0-.007,0-.011,0-.01,0-.019,0-.029,0-.003,0-.005,0-.008,0-.007,0-.016,0-.022,0-.004,0-.007,0-.011,0-.006,0-.015,0-.02,0-.004,0-.007,0-.01,0-.008,0-.016,0-.024,0-.002,0-.004,0-.007,0-.01,0-.02,0-.03.001-.003,0-.006,0-.009,0-.007,0-.014,0-.021,0-.004,0-.007,0-.011,0-.007,0-.014,0-.021,0-.003,0-.006,0-.009,0-.01,0-.02,0-.03.001-.001,0-.002,0-.004,0-.008,0-.018,0-.026.001-.003,0-.007,0-.01,0-.007,0-.014,0-.021,0-.004,0-.007,0-.01,0-.008,0-.016,0-.024,0-.002,0-.004,0-.006,0-.01,0-.02,0-.03.001-.003,0-.007,0-.01,0-.007,0-.014,0-.021,0-.004,0-.007,0-.011,0-.007,0-.013,0-.02,0-.004,0-.007,0-.01,0-.01,0-.019,0-.029.001-.002,0-.004,0-.005,0-.008,0-.017,0-.026.001-.004,0-.007,0-.011,0-.006,0-.014,0-.019,0-.004,0-.008,0-.012,0-.007,0-.013,0-.02,0-.003,0-.007,0-.01,0-.01,0-.019,0-.029.001-.003,0-.006,0-.01,0-.007,0-.014,0-.02,0-.004,0-.008,0-.012,0-.005,0-.014,0-.02,0-.003,0-.007,0-.011,0-.007,0-.016,0-.023.001-.004,0-.008,0-.012,0-.008,0-.015,0-.024.001-.004,0-.008,0-.012,0-.006,0-.013,0-.019,0-.004,0-.008,0-.013,0-.007,0-.011,0-.018,0-.004,0-.008,0-.011,0-.008,0-.02.001-.028.002-.003,0-.007,0-.01,0-.007,0-.013,0-.02.001-.004,0-.008,0-.012,0-.006,0-.012,0-.018,0-.004,0-.009,0-.013,0-.007,0-.015,0-.022.001-.002,0-.005,0-.008,0-.01,0-.019.001-.029.002-.004,0-.008,0-.012,0-.005,0-.013,0-.018.001-.004,0-.008,0-.012,0-.007,0-.012,0-.019.001-.004,0-.008,0-.011,0-.01,0-.019.001-.029.002-.002,0-.004,0-.006,0-.008,0-.015,0-.023.001-.004,0-.008,0-.012,0-.005,0-.013,0-.019.001-.004,0-.008,0-.012,0-.007,0-.014,0-.021.001-.003,0-.006,0-.009,0-.01,0-.019.001-.029.002-.004,0-.007,0-.011,0-.005,0-.013,0-.018.001-.005,0-.009,0-.013,0-.005,0-.012,0-.018.001-.004,0-.008,0-.011,0-.008,0-.017.001-.026.002-.004,0-.009,0-.013,0-.007,0-.013,0-.02.001-.004,0-.009,0-.013,0-.005,0-.011,0-.016.001-.005,0-.009,0-.014,0-.007,0-.011,0-.018.001-.004,0-.008,0-.012,0-.008,0-.019.001-.027.002-.004,0-.008,0-.012,0-.007,0-.012,0-.019.001-.004,0-.008,0-.012,0-.005,0-.013,0-.018.001-.004,0-.009,0-.013,0-.008,0-.014,0-.022.002-.005,0-.009,0-.014,0-.007,0-.014,0-.021.001-.004,0-.009,0-.013,0-.005,0-.012,0-.017.001-.005,0-.009,0-.013,0-.007,0-.01,0-.017.001-.004,0-.009,0-.013,0-.008,0-.019.001-.028.002-.004,0-.008,0-.012,0-.007,0-.011,0-.018.001-.005,0-.01,0-.014.001-.005,0-.01,0-.016.001-.005,0-.009,0-.014.001-.005,0-.012,0-.017.001-.007,0-.014.001-.021.002-.007,0-.012,0-.019.001-.005,0-.009,0-.013.001-.005,0-.011,0-.017.001-.005,0-.009,0-.014.001-.005,0-.012,0-.017.001-.004,0-.008,0-.012,0-.008,0-.019.002-.028.002-.004,0-.008,0-.011,0-.007,0-.011,0-.018.001-.005,0-.009,0-.014.001-.005,0-.011,0-.016.001-.005,0-.009,0-.014.001-.007,0-.011,0-.018.001-.006,0-.011,0-.016.001-.007,0-.015.001-.022.002-.005,0-.01,0-.015.001-.004,0-.011,0-.015.001-.005,0-.009,0-.014.001-.005,0-.011,0-.016.001-.005,0-.009,0-.014.001-.008,0-.016.001-.024.002-.005,0-.011,0-.016.001-.005,0-.01,0-.015.001-.005,0-.011,0-.016.001-.005,0-.008,0-.013.001-.005,0-.01,0-.016.001-.005,0-.009,0-.015.001-.008,0-.015.001-.023.002-.005,0-.012.001-.018.002-.005,0-.011,0-.016.001-.004,0-.009,0-.013.001-.006,0-.011,0-.016.001-.004,0-.01,0-.014.001-.005,0-.01,0-.015.001-.005,0-.01,0-.015.001-.009,0-.018.002-.027.002-.005,0-.007,0-.013.001-.006,0-.011.001-.017.002-.004,0-.008,0-.012.001-.006,0-.012.001-.017.002h-.011c-.013.002-.026.003-.039.005-.001,0-.003,0-.004,0-.006,0-.011.001-.017.002-.004,0-.008,0-.012.001-.006,0-.012.001-.017.002-.004,0-.007,0-.011.001-.006,0-.012.001-.018.002-.003,0-.005,0-.007,0-.012.001-.024.002-.036.003-.004,0-.006,0-.01,0-.006,0-.012.001-.018.002-.004,0-.006,0-.01.001-.006,0-.012.001-.018.002-.004,0-.006,0-.011.001-.021.002-.041.004-.061.006-.003,0-.008,0-.01.001-.006,0-.012.001-.018.002-.003,0-.007,0-.009,0-.007,0-.013.001-.02.002-.001,0-.004,0-.005,0-.015.002-.031.003-.046.005h0c-.007,0-.014.001-.021.002-.001,0-.006,0-.008,0-.007,0-.013.001-.02.002-.003,0-.005,0-.008,0-.022.002-.045.005-.067.007-.001,0-.004,0-.006,0-.007,0-.014.001-.02.002-.003,0-.005,0-.008,0-.007,0-.013.001-.02.002-.003,0-.005,0-.008,0-.022.002-.043.005-.065.007-.003,0-.005,0-.008,0-.006,0-.013.001-.019.002-.004,0-.005,0-.009.001-.022.002-.044.005-.066.007-.001,0-.004,0-.005,0-.007,0-.013.001-.02.002-.003,0-.006,0-.009,0-.007,0-.013.001-.02.002-.001,0-.004,0-.006,0-.022.002-.044.005-.067.008-.003,0-.005,0-.007,0-.007,0-.014.002-.02.002-.001,0-.005,0-.007,0-.023.003-.046.005-.069.008-.001,0-.003,0-.004,0-.007,0-.014.002-.021.002-.003,0-.004,0-.007,0-.007,0-.014.002-.021.002-.003,0-.003,0-.005,0-.022.003-.045.005-.067.008-.003,0-.004,0-.006,0-.007,0-.014.002-.021.002-.001,0-.005,0-.006,0-.031.004-.063.008-.095.011-.001,0-.004,0-.005,0-.007,0-.015.002-.022.003-.001,0-.003,0-.004,0-.024.003-.048.006-.072.009h-.002c-.008.001-.016.002-.023.003-.001,0-.002,0-.003,0-.033.004-.065.008-.098.013-.001,0,0,0-.002,0-.008.001-.016.002-.024.003h-.002c-.033.004-.066.009-.098.013h-.002c-.033.005-.066.009-.099.013h-.001c-.008.001-.016.002-.024.003h-.001c-2.48.334-4.89.888-7.211,1.64l4.011,12.366c2.82-.915,5.773-1.378,8.778-1.378V0h0ZM106.783,7.893c-.345.251-.685.506-1.022.767,0,0,0,0,0,0-.008.006-.015.011-.023.018,0,0-.002.001-.002.002-.033.025-.063.049-.096.075,0,0-.002.001-.003.002-.006.005-.015.012-.021.017,0,0-.002.001-.003.002-.008.006-.015.012-.023.018,0,0,0,0,0,0-.015.012-.032.025-.047.037-.002.001-.003.002-.005.004-.006.005-.013.01-.019.015l-.004.003c-.007.006-.015.012-.022.018,0,0,0,0,0,0-.016.013-.032.025-.048.038,0,0-.001.001-.002.002-.007.006-.014.011-.021.017-.001,0-.003.002-.004.003-.006.005-.013.011-.019.015-.001.001-.003.002-.005.004-.007.006-.015.012-.022.017,0,0,0,0,0,0-.008.006-.015.012-.023.019-.001,0-.003.002-.004.003-.006.005-.013.011-.019.015-.002.001-.004.003-.005.004-.006.005-.011.009-.017.013-.002.002-.005.004-.007.006-.006.005-.011.009-.017.014-.002.001-.004.003-.006.005-.014.011-.031.025-.045.036-.002.002-.004.003-.006.005-.006.005-.01.008-.016.013-.002.002-.006.004-.008.006-.006.005-.009.007-.015.012-.002.002-.005.004-.007.005-.005.004-.012.009-.017.013-.002.002-.004.003-.007.005-.008.006-.014.011-.022.018-.002.001-.003.003-.005.004-.006.005-.011.009-.017.013-.003.002-.006.005-.009.007-.005.004-.009.008-.014.012-.003.002-.006.005-.008.007-.005.004-.009.007-.014.011-.003.002-.006.004-.008.007-.006.005-.014.011-.02.016-.002.002-.004.003-.006.005-.006.005-.012.01-.018.015-.003.002-.006.005-.009.007-.004.003-.009.007-.013.011-.003.003-.007.005-.01.008-.004.003-.007.006-.011.009-.004.003-.008.006-.012.01-.004.003-.007.006-.011.009-.003.003-.007.005-.01.008-.007.006-.013.011-.02.017-.004.003-.007.006-.011.009-.004.003-.008.007-.012.01-.003.003-.007.006-.01.008-.004.003-.007.006-.011.009-.004.003-.007.006-.011.009-.005.004-.007.006-.012.01-.003.003-.007.006-.01.008-.004.003-.007.006-.011.009-.008.006-.015.012-.022.018-.003.002-.005.004-.008.006-.004.004-.009.007-.013.011-.003.002-.005.004-.008.007-.004.004-.009.008-.014.011-.003.002-.004.004-.007.006-.005.004-.009.008-.014.011-.002.002-.005.004-.007.006-.008.007-.017.014-.025.021-.003.002-.006.005-.009.007-.004.004-.008.007-.013.011-.003.002-.005.004-.008.007-.004.004-.009.008-.014.011-.002.002-.006.005-.008.007-.004.004-.009.007-.013.011-.002.002-.006.005-.008.006-.004.004-.009.008-.014.011-.002.002-.003.003-.005.004-.01.008-.02.016-.029.024-.002.002-.004.003-.006.005-.005.004-.009.008-.014.012-.003.002-.004.004-.007.006-.004.004-.009.007-.013.011-.003.002-.005.005-.008.007-.005.004-.009.008-.014.011,0,0-.004.003-.005.004-.017.014-.033.028-.05.042-.002.002-.004.003-.006.005-.005.004-.01.008-.014.012-.002.002-.005.004-.007.006-.005.004-.01.008-.015.012-.002.002-.003.003-.005.005-.018.015-.036.03-.053.045h-.001c-.005.006-.01.01-.016.014,0,0-.004.004-.005.005-.005.004-.01.009-.015.013,0,0-.004.004-.005.004-.005.004-.01.009-.016.013,0,0-.002.002-.003.003-.017.015-.035.029-.052.044-.002.002-.003.003-.005.004-.005.004-.01.008-.014.012-.002.002-.005.004-.007.006-.005.004-.01.008-.015.013,0,0-.003.002-.004.003-.018.015-.035.03-.053.046,0,0-.002.001-.003.002-.005.004-.011.009-.016.014,0,0-.004.003-.005.004-.005.004-.011.009-.016.014,0,0-.003.003-.004.004-.024.021-.049.042-.073.063h-.002c-.006.007-.012.012-.018.017h-.001c-.031.028-.062.055-.094.082,0,0-.002.002-.003.002-.006.005-.012.01-.018.015h0c-2.34,2.041-4.449,4.341-6.281,6.854l10.505,7.658c1.762-2.417,3.882-4.534,6.301-6.292l-7.644-10.515h0ZM91.726,28.568c-1.134,3.48-1.82,7.161-1.989,10.977,0,0,0,0,0,0-.003.077-.007.154-.01.231,0,0,0,.001,0,.002,0,.011,0,.02-.001.031,0,.001,0,.002,0,.003,0,.022-.002.043-.002.065,0,0,0,0,0,.001,0,.011,0,.019-.001.03,0,.001,0,.002,0,.004,0,.011,0,.019-.001.03,0,0,0,.001,0,.002,0,.011,0,.022-.001.033h0c0,.01,0,.021-.001.031,0,.002,0,.004,0,.006,0,.008,0,.017,0,.026,0,.002,0,.004,0,.006,0,.021-.001.042-.002.063,0,.002,0,.003,0,.005,0,.008,0,.018,0,.026,0,.003,0,.005,0,.008,0,.008,0,.017,0,.025,0,.002,0,.004,0,.006,0,.011,0,.02,0,.031,0,0,0,.001,0,.002,0,.01,0,.018,0,.028,0,.003,0,.006,0,.008,0,.008,0,.015,0,.023,0,.003,0,.006,0,.009,0,.008,0,.018,0,.026,0,.002,0,.003,0,.005,0,.01,0,.02,0,.03,0,.004,0,.007,0,.011,0,.007,0,.013,0,.02,0,.004,0,.008,0,.012,0,.007,0,.013,0,.019,0,.004,0,.007,0,.011,0,.01,0,.018,0,.028,0,.003,0,.006,0,.009,0,.007,0,.015,0,.022,0,.004,0,.008,0,.012,0,.006,0,.013,0,.019,0,.004,0,.008,0,.012,0,.007,0,.014,0,.021,0,.003,0,.006,0,.01,0,.01,0,.019,0,.029,0,.004,0,.009,0,.013,0,.006,0,.011,0,.017,0,.005,0,.01,0,.015,0,.006,0,.01,0,.016,0,.005,0,.009,0,.014,0,.007,0,.012,0,.019,0,.007,0,.014,0,.021,0,.006,0,.012,0,.018,0,.005,0,.01,0,.015,0,.006,0,.01,0,.015,0,.005,0,.011,0,.016,0,.004,0,.01,0,.014,0,.005,0,.011,0,.016,0,.003,0,.008,0,.011,0,.011,0,.022,0,.034,0,.004,0,.007,0,.012,0,.006,0,.012,0,.018,0,.004,0,.007,0,.011,0,.006,0,.013,0,.019,0,.001,0,.006,0,.008,0,.013,0,.027,0,.04,0,.003,0,.004,0,.006,0,.007,0,.013,0,.02,0,.004,0,.005,0,.009,0,.007,0,.013,0,.02,0,.003,0,.005,0,.008,0,.023,0,.046,0,.069,0,.001,0,.004,0,.005,0,.007,0,.014,0,.021,0,.003,0,.006,0,.008,0,.007,0,.014,0,.021,0,.001,0,.002,0,.003,0,.024,0,.049,0,.073,0,.001,0,.003,0,.004,0,.008,0,.016,0,.024,0,.001,0,.002,0,.003,0,.034,0,.068,0,.102h0c0,.01,0,.018,0,.027l13,.018c.004-3.005.472-5.958,1.39-8.776l-12.36-4.028h0ZM104.062,50.153l-12.371,3.994c.253.783.528,1.555.825,2.317,0,.001,0,.001,0,.002.015.039.031.078.046.117h0c.003.008.006.016.009.024,0,.001,0,.001,0,.002.012.03.024.06.035.09,0,.002.001.003.002.006.002.006.005.013.008.019,0,.002.002.004.003.006.002.006.005.012.007.019,0,.001.002.005.002.006.008.02.016.04.024.06,0,.002.002.006.003.009.002.005.004.01.006.016.002.005.003.007.005.012.002.005.004.009.006.014.001.004.003.009.005.012.002.005.004.009.006.014.002.006.005.014.008.02.002.006.005.012.007.018.002.005.003.008.005.013.002.005.004.009.006.014.002.005.003.008.005.013.002.004.003.008.005.013.002.006.004.009.006.015.002.004.003.008.005.012.003.009.007.017.01.025.001.003.002.006.004.009.002.006.005.011.007.017.002.004.003.008.005.012.002.005.004.011.006.015.002.004.003.008.005.011.003.006.004.011.007.017.001.003.003.006.004.01.007.017.015.037.022.054,0,.002.002.005.003.007.003.007.006.014.009.021,0,.002.002.004.003.007.003.007.006.015.009.022,0,.002.002.004.002.006.008.018.015.037.023.055,0,.002.002.004.002.006.003.007.006.015.009.022,0,.002.002.004.002.006.003.007.006.015.009.022,0,.002.001.004.002.005.012.028.023.056.035.083,0,.001.001.003.002.005.003.007.006.015.01.023,0,.002.002.004.003.006.004.008.008.018.011.026h0c.008.019.016.038.024.057,0,0,0,.002,0,.002.004.01.007.017.011.026,0,0,0,.001.001.002,1.224,2.883,2.765,5.595,4.58,8.099l10.526-7.629c-1.754-2.42-3.106-5.08-4.019-7.907h0ZM114.364,64.369l-7.673,10.494c.247.181.497.359.749.535h0c.034.024.066.046.101.07.001,0,.002.001.003.002.007.005.016.011.023.016,0,0,0,0,0,0,.026.018.049.034.075.052.001,0,.002.002.003.002.007.005.015.01.023.016,0,0,.001,0,.002.001.025.017.05.034.074.051.002.001.004.003.006.004.006.004.012.009.019.013.002.001.004.003.006.004.006.004.014.009.02.014.001,0,.003.002.004.003.009.006.016.011.025.017h0c.008.005.016.011.023.016.002.002.004.003.007.005.006.004.011.007.017.012.002.002.005.003.007.005.005.004.011.008.017.011.003.002.005.004.008.005.015.01.032.021.047.032.003.002.006.004.009.006.005.004.011.007.016.011.002.002.005.004.008.005.005.004.012.008.017.011.002.002.005.003.007.005.006.004.015.01.021.014,0,0,.002.001.003.002.008.005.016.011.023.016.003.002.005.004.008.005.005.004.011.007.016.011.003.002.006.004.009.006.004.003.011.007.015.01.003.002.006.004.01.007.005.004.01.007.015.01.003.002.006.004.008.006.008.005.015.01.022.015.003.002.007.005.01.007.005.004.009.006.014.009.004.002.007.005.011.007.004.003.008.006.013.008.004.002.008.005.012.008.004.003.008.006.013.008.004.002.007.005.011.007.005.004.01.007.016.01.006.004.012.008.018.012.004.003.007.004.011.007.004.003.008.006.013.008.004.003.007.005.011.007.004.003.008.006.013.008.003.002.008.005.011.007.004.003.008.006.013.008.003.002.006.004.009.006.01.007.02.013.03.02.002.001.002.001.004.003.005.003.011.007.016.01.003.002.004.003.007.005.005.003.01.007.015.01.003.002.005.003.008.005.005.003.01.007.015.01.001,0,.003.002.004.003.018.012.036.024.054.036.002.001.005.004.008.005.005.003.011.007.016.01.002.001.004.003.007.004.006.004.011.007.017.011.001,0,.002.001.003.002.019.013.039.026.059.038.001,0,.002.001.003.002.006.004.012.008.018.012.002.001.003.002.005.003.006.004.012.008.018.012.001,0,.001,0,.003.002.027.018.055.035.082.053.001,0,0,0,.001,0,.007.004.014.009.02.013h.001c.028.018.055.036.083.054.001,0,.001,0,.002.001.007.004.014.009.02.013h0c2.887,1.841,6.018,3.333,9.333,4.419l4.045-12.355c-2.823-.925-5.478-2.288-7.891-4.052h0ZM139.812,68.469c-2.797.899-5.726,1.355-8.704,1.355h-.079s-.035,13-.035,13c.009,0,.017,0,.026,0,.004,0,.01,0,.015,0,.003,0,.006,0,.009,0,.022,0,.043,0,.065,0h0c.01,0,.021,0,.03,0h.009c.008,0,.014,0,.022,0,.003,0,.007,0,.01,0,.008,0,.016,0,.024,0,.002,0,.004,0,.006,0,.01,0,.02,0,.03,0,.003,0,.006,0,.009,0,.007,0,.016,0,.023,0,.003,0,.006,0,.009,0,.008,0,.014,0,.022,0,.003,0,.006,0,.009,0,.01,0,.021,0,.03,0,.001,0,.003,0,.004,0,.008,0,.017,0,.026,0,.004,0,.007,0,.011,0,.007,0,.014,0,.021,0,.003,0,.006,0,.01,0,.008,0,.017,0,.025,0,.002,0,.004,0,.006,0,.01,0,.02,0,.03,0,.003,0,.006,0,.009,0,.007,0,.014,0,.021,0,.004,0,.007,0,.011,0,.008,0,.015,0,.023,0,.002,0,.005,0,.007,0,.011,0,.019,0,.03,0,.002,0,.004,0,.007,0,.008,0,.015,0,.024,0,.004,0,.007,0,.01,0,.007,0,.013,0,.02,0,.004,0,.008,0,.011,0,.008,0,.018,0,.026,0,.001,0,.002,0,.003,0,.01,0,.02,0,.03,0,.003,0,.007,0,.01,0,.007,0,.015,0,.022,0,.003,0,.006,0,.009,0,.008,0,.015,0,.023,0,.003,0,.005,0,.008,0,.011,0,.019,0,.03,0,.002,0,.005,0,.007,0,.008,0,.016,0,.024,0,.003,0,.006,0,.01,0,.008,0,.014,0,.022,0,.003,0,.006,0,.009,0,.01,0,.021,0,.03,0,0,0,.002,0,.002,0,.008,0,.02,0,.028,0,.003,0,.005,0,.008,0,.008,0,.014,0,.022,0,.003,0,.006,0,.01,0,.008,0,.016,0,.024,0,.002,0,.004,0,.007,0,.01,0,.02,0,.03,0,.003,0,.006,0,.009,0,.007,0,.014,0,.021,0,.004,0,.008,0,.011,0,.007,0,.014,0,.021,0,.003,0,.007,0,.01,0,.01,0,.02,0,.029,0,.002,0,.005,0,.007,0,.008,0,.014,0,.022,0,.004,0,.008,0,.013,0,.006,0,.013,0,.018,0,.004,0,.008,0,.012,0,.008,0,.017,0,.025,0,.001,0,.003,0,.004,0,.01,0,.02,0,.03,0,.003,0,.007,0,.01,0,.007,0,.013,0,.02,0,.004,0,.008,0,.011,0,.007,0,.015,0,.021,0,.003,0,.005,0,.008,0,.011,0,.019,0,.03,0,.003,0,.005,0,.008,0,.007,0,.015,0,.022,0,.004,0,.008,0,.012,0,.006,0,.013,0,.019,0,.004,0,.008,0,.012,0,.008,0,.017,0,.025,0,.003,0,.006,0,.009,0,.008,0,.016,0,.025,0,.004,0,.008,0,.012,0,.006,0,.013,0,.018,0,.004,0,.008,0,.012,0,.007,0,.014,0,.021,0,.003,0,.006,0,.009,0,.01,0,.019,0,.029-.001.004,0,.007,0,.011,0,.007,0,.012,0,.019,0,.004,0,.008,0,.012,0,.007,0,.013,0,.02,0,.003,0,.007,0,.011,0,.01,0,.019,0,.029-.001.002,0,.004,0,.007,0,.008,0,.015,0,.024,0,.003,0,.006,0,.01,0,.008,0,.013,0,.021,0,.003,0,.007,0,.011,0,.008,0,.015,0,.023,0,.002,0,.004,0,.007,0,.01,0,.02,0,.029-.001.003,0,.007,0,.009,0,.007,0,.014,0,.021,0,.003,0,.007,0,.011,0,.007,0,.014,0,.021,0,.003,0,.007,0,.01,0,.01,0,.019,0,.029-.001.003,0,.005,0,.008,0,.007,0,.015,0,.022,0,.004,0,.008,0,.012,0,.006,0,.014,0,.019,0,.004,0,.007,0,.011,0,.008,0,.016,0,.024-.001.002,0,.005,0,.007,0,.01,0,.018,0,.027-.001.004,0,.008,0,.012,0,.006,0,.012,0,.018,0,.004,0,.009,0,.013,0,.007,0,.012,0,.019,0,.003,0,.007,0,.011,0,.008,0,.02,0,.029-.001.003,0,.007,0,.01,0,.007,0,.013,0,.02,0,.004,0,.008,0,.013,0,.006,0,.011,0,.017,0,.005,0,.009,0,.013,0,.008,0,.014,0,.023-.001.005,0,.009,0,.014,0,.007,0,.014,0,.021-.001.004,0,.008,0,.013,0,.006,0,.012,0,.018,0,.004,0,.008,0,.013,0,.007,0,.013,0,.02-.001.003,0,.006,0,.01,0,.01,0,.019-.001.028-.002.004,0,.008,0,.012,0,.006,0,.012,0,.018,0,.005,0,.009,0,.013,0,.005,0,.013,0,.019-.001.004,0,.007,0,.011,0,.01,0,.019-.001.028-.002.003,0,.007,0,.01,0,.007,0,.013,0,.02-.001.004,0,.008,0,.012,0,.005,0,.013,0,.018-.001.004,0,.008,0,.012,0,.007,0,.015,0,.022-.001.003,0,.005,0,.008,0,.01,0,.018-.001.028-.002.004,0,.008,0,.013,0,.005,0,.012,0,.018-.001.004,0,.008,0,.012,0,.007,0,.012,0,.019-.001.004,0,.008,0,.012,0,.01,0,.018-.001.028-.002.003,0,.007,0,.01,0,.007,0,.012,0,.019-.001.005,0,.009,0,.014,0,.005,0,.012,0,.017-.001.004,0,.008,0,.012,0,.007,0,.014,0,.021-.001.005,0,.01,0,.016-.001.007,0,.013,0,.02-.001.005,0,.009,0,.013,0,.005,0,.011,0,.016-.001.005,0,.009,0,.014,0,.007,0,.011,0,.018-.001.004,0,.007,0,.011,0,.008,0,.02-.001.028-.002.004,0,.007,0,.011,0,.007,0,.012,0,.019-.001.004,0,.008,0,.012,0,.005,0,.012,0,.018-.001.004,0,.008,0,.013,0,.008,0,.016-.001.024-.002.005,0,.009,0,.013,0,.007,0,.013,0,.02-.001.004,0,.009,0,.013,0,.005,0,.011,0,.017-.001.005,0,.009,0,.013,0,.007,0,.011,0,.018-.001.004,0,.008,0,.012,0,.008,0,.019-.001.027-.002.004,0,.007,0,.011,0,.005,0,.012,0,.018-.001.005,0,.009,0,.014-.001.005,0,.011,0,.016-.001.004,0,.009,0,.013-.001.008,0,.017-.001.025-.002.005,0,.01,0,.015-.001.005,0,.011,0,.017-.001.005,0,.009,0,.013-.001.005,0,.011,0,.017-.001.004,0,.009,0,.013-.001.007,0,.014-.001.021-.002.003,0,.006,0,.009,0,.008,0,.018-.001.026-.002.005,0,.009,0,.014-.001.005,0,.011,0,.016-.001.005,0,.009,0,.013-.001.005,0,.011,0,.017-.001.004,0,.009,0,.013-.001.008,0,.018-.001.027-.002.005,0,.009,0,.014-.001.004,0,.011,0,.015-.001.005,0,.01,0,.015-.001.005,0,.01,0,.015-.001.004,0,.009,0,.013-.001.007,0,.012-.001.019-.002.007,0,.014-.001.021-.002.005,0,.011,0,.017-.001.004,0,.01,0,.014-.001.005,0,.01,0,.015-.001.005,0,.01,0,.015-.001.004,0,.011,0,.015-.001.006,0,.011,0,.017-.001.008,0,.015-.001.023-.002.005,0,.009,0,.014-.001.004,0,.011,0,.015-.001.004,0,.01,0,.014-.001.005,0,.01,0,.015-.001.005,0,.01,0,.015-.001.007,0,.012-.001.019-.002.007,0,.014-.001.02-.002.005,0,.011,0,.016-.001.005,0,.01,0,.014-.001.005,0,.01,0,.015-.001.005,0,.01,0,.015-.001.005,0,.009,0,.014-.001.008,0,.016-.001.024-.002.005,0,.012-.001.017-.002.005,0,.01,0,.014-.001.005,0,.01,0,.015-.001.005,0,.01,0,.015-.001.004,0,.01,0,.014-.001.005,0,.01,0,.015-.001.007,0,.013-.001.02-.002.007,0,.014-.001.021-.002.004,0,.01,0,.014-.001.005,0,.01,0,.015-.001.004,0,.01,0,.014-.001.005,0,.01,0,.016-.002.005,0,.01,0,.016-.002.007,0,.015-.001.022-.002.005,0,.012-.001.017-.002.005,0,.011-.001.016-.002.004,0,.008,0,.012-.001.006,0,.011-.001.017-.002.004,0,.008,0,.012-.001.013-.001.025-.003.038-.004.001,0,.002,0,.003,0,.006,0,.012-.001.018-.002.004,0,.006,0,.01-.001.006,0,.012-.001.018-.002.004,0,.006,0,.01-.001.006,0,.012-.001.018-.002.003,0,.005,0,.008,0,.012-.001.024-.002.036-.004.003,0,.007,0,.009,0,.006,0,.012-.001.018-.002.003,0,.008,0,.01-.001.006,0,.012-.001.018-.002.003,0,.006,0,.009,0,.013-.001.026-.003.039-.004.001,0,.004,0,.005,0,.006,0,.012-.001.017-.002.004,0,.008,0,.012-.001.006,0,.011-.001.017-.002.004,0,.008,0,.012-.001.006,0,.011-.001.017-.002.004,0,.006,0,.01-.001.011-.001.022-.002.032-.004.003,0,.008,0,.011-.001.006,0,.012-.001.018-.002.003,0,.008,0,.011-.001.006,0,.012-.001.018-.002.003,0,.008,0,.011-.001.011-.001.022-.002.034-.004.004,0,.005,0,.009-.001.006,0,.012-.001.017-.002.004,0,.007,0,.011-.001.005,0,.011-.001.017-.002.004,0,.009,0,.013-.001.02-.002.039-.004.059-.007.004,0,.007,0,.011-.001.005,0,.011-.001.017-.002.004,0,.009,0,.013-.001.005,0,.011-.001.016-.002.005,0,.007,0,.013-.001.009-.001.018-.002.028-.003.005,0,.008,0,.014-.002.005,0,.01-.001.015-.002.005,0,.009-.001.015-.002.005,0,.01-.001.015-.002.004,0,.01-.001.014-.002.008,0,.017-.002.026-.003.005,0,.01-.001.015-.002.005,0,.011-.001.016-.002.004,0,.009-.001.013-.002.005,0,.011-.001.016-.002.004,0,.008,0,.012-.001.005,0,.011-.001.016-.002.004,0,.007,0,.011-.001.01-.001.02-.002.03-.004.004,0,.008-.001.013-.002.006,0,.011-.001.017-.002.003,0,.008,0,.01-.001.006,0,.012-.001.018-.002.003,0,.007,0,.01-.001.011-.001.022-.003.033-.004.004,0,.006,0,.01-.001.006,0,.012-.001.017-.002.004,0,.007,0,.011-.001.006,0,.012-.002.018-.002.003,0,.006,0,.009-.001.02-.003.041-.005.061-.008.004,0,.007,0,.011-.001.006,0,.011-.001.017-.002.004,0,.007,0,.011-.001.006,0,.012-.001.017-.002.003,0,.007,0,.009-.001.011-.001.022-.003.033-.004.004,0,.007,0,.011-.001.005,0,.011-.001.017-.002.004,0,.008-.001.012-.002.005,0,.011-.001.017-.002.004,0,.007,0,.011-.001.02-.003.04-.005.059-.008.004,0,.007,0,.011-.001.005,0,.012-.002.017-.002.004,0,.007,0,.011-.001.006,0,.011-.002.017-.002.004,0,.006,0,.01-.001.01-.001.021-.003.032-.004.003,0,.009-.001.011-.002.005,0,.011-.002.017-.002.004,0,.008-.001.012-.002.005,0,.011-.001.016-.002.004,0,.009-.001.013-.002.01-.001.02-.003.03-.004.004,0,.007,0,.011-.002.006,0,.012-.002.017-.002.004,0,.006,0,.01-.001.006,0,.012-.002.018-.002.004,0,.007-.001.011-.002.006,0,.011-.002.017-.002.003,0,.005,0,.008-.001.011-.002.023-.003.034-.005.003,0,.008-.001.011-.002.006,0,.011-.002.017-.002.004,0,.008-.001.012-.002.006,0,.012-.002.018-.003.003,0,.006,0,.009-.001.011-.002.023-.003.034-.005.004,0,.005,0,.009-.001.006,0,.011-.002.017-.002.004,0,.008-.001.012-.002.006,0,.011-.002.017-.002.004,0,.006,0,.01-.002.019-.003.039-.006.058-.009.004,0,.009-.001.013-.002.005,0,.011-.002.016-.002.004,0,.008-.001.012-.002.005,0,.011-.002.017-.002.004,0,.007-.001.011-.002.011-.002.021-.003.032-.005.004,0,.007-.001.011-.002.006,0,.012-.002.018-.003.003,0,.007-.001.009-.001.006,0,.012-.002.018-.003.003,0,.007-.001.009-.001.021-.003.041-.006.062-.009.003,0,.006,0,.009-.001.006,0,.012-.002.018-.003.004,0,.006,0,.01-.001.006,0,.012-.002.018-.003.003,0,.005,0,.008-.001.011-.002.022-.003.033-.005.004,0,.008-.001.012-.002.005,0,.011-.002.016-.003.005,0,.008-.001.013-.002.005,0,.01-.002.015-.002.005,0,.009-.001.014-.002.008-.001.015-.002.022-.004.005,0,.012-.002.017-.003.005,0,.011-.002.016-.002.004,0,.008-.001.012-.002.005,0,.011-.002.016-.003.004,0,.008-.001.012-.002.005,0,.01-.002.015-.002.004,0,.009-.002.013-.002.009-.001.018-.003.028-.004.004,0,.009-.001.013-.002.005,0,.01-.002.016-.003.004,0,.008-.001.012-.002.005,0,.011-.002.016-.003.005,0,.008-.001.013-.002.009-.001.018-.003.027-.004.004,0,.009-.001.013-.002.006,0,.011-.002.017-.003.004,0,.007-.001.011-.002.005,0,.011-.002.016-.003.004,0,.008-.001.012-.002.012-.002.023-.004.035-.006.003,0,.004,0,.007-.001.005,0,.01-.002.015-.003.004,0,.009-.002.013-.002.005,0,.01-.002.015-.003.005,0,.009-.002.015-.002.005,0,.01-.002.014-.002.005,0,.008-.001.013-.002.009-.002.018-.003.027-.005.005,0,.008-.001.013-.002.005,0,.01-.002.015-.003.005,0,.008-.001.013-.002.005,0,.01-.002.015-.003.004,0,.01-.002.014-.002.007-.001.015-.003.022-.004.005,0,.012-.002.017-.003.005,0,.01-.002.015-.003.004,0,.01-.002.014-.002.005,0,.01-.002.015-.003.004,0,.009-.002.013-.002.005,0,.01-.002.015-.003.005,0,.009-.002.014-.003.009-.002.017-.003.026-.004.004,0,.009-.002.013-.002.005,0,.01-.002.015-.003.005,0,.008-.001.013-.002.005,0,.01-.002.015-.003.005,0,.008-.001.014-.002.008-.001.015-.003.023-.004.005,0,.012-.002.017-.003.005,0,.01-.002.014-.003.004,0,.009-.002.013-.002.005,0,.01-.002.016-.003.004,0,.009-.002.013-.002.005,0,.01-.002.015-.003.008-.001.018-.003.026-.005.004,0,.009-.002.013-.002.004,0,.011-.002.015-.003.004,0,.009-.002.014-.002.005,0,.01-.002.015-.003.005,0,.01-.002.014-.003.007-.001.012-.002.018-.003.006-.001.012-.002.018-.003.007-.001.012-.002.018-.003.005,0,.009-.002.014-.003.005,0,.01-.002.015-.003.005,0,.01-.002.014-.003.004,0,.011-.002.015-.003.005,0,.009-.002.014-.003.008-.001.018-.003.026-.005.004,0,.008-.002.013-.002.005,0,.01-.002.016-.003.004,0,.009-.002.014-.003.005,0,.011-.002.016-.003.004,0,.008-.001.012-.002.008-.001.015-.003.023-.004.005,0,.01-.002.015-.003.007-.001.01-.002.017-.003.004,0,.009-.002.013-.003.005-.001.01-.002.015-.003.004,0,.009-.002.013-.003.007-.001.011-.002.017-.003.006-.001.012-.002.017-.003.007-.001.013-.002.02-.004.005,0,.01-.002.015-.003.004,0,.01-.002.014-.003.005,0,.009-.002.014-.003.005-.001.011-.002.016-.003.004,0,.009-.002.013-.002.008-.002.018-.003.026-.005.004,0,.009-.002.013-.003.004,0,.011-.002.015-.003.005,0,.009-.002.014-.003.005-.001.01-.002.015-.003.004,0,.009-.002.013-.003.007-.001.013-.003.02-.004.004,0,.009-.002.013-.003.008-.002.015-.003.023-.004.004,0,.008-.001.011-.002.005-.001.012-.002.017-.003.004,0,.009-.002.013-.003.005-.001.011-.002.016-.003.004,0,.008-.002.012-.002.008-.002.018-.004.026-.005.004,0,.008-.002.012-.002.007-.001.011-.002.017-.003.004,0,.008-.002.012-.002.005-.001.011-.002.016-.003.004,0,.008-.002.013-.003.007-.001.012-.003.019-.004.006-.001.012-.002.018-.004.007-.001.011-.002.017-.003.005,0,.009-.002.014-.003.005-.001.009-.002.014-.003.005,0,.01-.002.014-.003.005-.001.009-.002.014-.003.007-.002.015-.003.022-.005.005-.001.012-.002.017-.004.005,0,.009-.002.014-.003.004,0,.011-.002.015-.003.004,0,.009-.002.013-.003.005-.001.012-.002.017-.004.004,0,.008-.002.011-.002.009-.002.018-.004.027-.006.003,0,.006-.001.01-.002.007-.001.012-.002.018-.004.004,0,.008-.002.012-.003.005-.001.012-.002.017-.004.004,0,.008-.002.012-.003.007-.001.014-.003.021-.004.003,0,.005-.001.007-.002.009-.002.017-.004.026-.006.004,0,.009-.002.013-.003.005-.001.011-.002.016-.003.004,0,.008-.002.012-.003.007-.001.011-.002.018-.004.004,0,.007-.001.01-.002.008-.002.019-.004.027-.006.003,0,.006-.001.009-.002.007-.001.012-.003.019-.004.004,0,.008-.002.012-.003.005-.001.012-.003.017-.004.004,0,.007-.002.011-.002.008-.002.015-.003.023-.005.004,0,.008-.002.011-.002.007-.001.015-.003.022-.005.004,0,.007-.002.011-.002.005-.001.013-.003.018-.004.004,0,.007-.002.011-.002.008-.002.013-.003.021-.005.002,0,.005-.001.007-.002.009-.002.019-.004.028-.006.003,0,.006-.001.009-.002.007-.001.014-.003.02-.004.003,0,.007-.001.01-.002.007-.001.013-.003.019-.004.003,0,.007-.001.01-.002.009-.002.018-.004.028-.006.002,0,.004,0,.005-.001.008-.002.015-.003.023-.005.003,0,.007-.001.01-.002.007-.001.013-.003.02-.004.003,0,.006-.001.009-.002.007-.001.015-.003.021-.005.003,0,.005-.001.008-.002.009-.002.018-.004.027-.006.003,0,.006-.001.009-.002.007-.001.014-.003.02-.005.003,0,.006-.001.01-.002.008-.002.013-.003.021-.005.002,0,.005-.001.007-.002.01-.002.018-.004.029-.007.002,0,.003,0,.004-.001.008-.002.017-.004.025-.006.003,0,.005-.001.008-.002.008-.002.013-.003.021-.005.003,0,.006-.001.009-.002.009-.002.017-.004.027-.006,0,0,0,0,.002,0,.009-.002.019-.004.028-.007.003,0,.006-.001.008-.002.008-.002.013-.003.021-.005l.008-.002c.008-.002.017-.004.024-.006.002,0,.003,0,.004-.001.01-.002.019-.005.03-.007,0,0,.002,0,.002,0,.009-.002.017-.004.026-.006.002,0,.005-.001.007-.002.008-.002.017-.004.025-.006.001,0,.003,0,.004,0,.021-.005.039-.009.06-.014.001,0,.003,0,.004-.001.008-.002.017-.004.025-.006.002,0,.004,0,.006-.001.02-.005.04-.009.059-.014,0,0,.002,0,.002,0,.01-.002.017-.004.028-.007.001,0,.002,0,.004,0,.01-.002.017-.004.028-.007,0,0,.001,0,.002,0,.021-.005.039-.01.06-.015.001,0,.002,0,.004,0,.008-.002.019-.005.027-.007,0,0,.002,0,.003,0,.021-.005.04-.01.061-.015,0,0,.001,0,.002,0,.009-.002.019-.005.028-.007.001,0,.003,0,.004,0,.031-.008.059-.015.091-.022,0,0,.002,0,.003,0,.01-.003.018-.005.029-.007,0,0,.001,0,.002,0,.021-.005.04-.01.061-.015.001,0,.002,0,.003,0,.009-.002.018-.005.027-.007.001,0,.002,0,.004,0,.031-.008.059-.015.09-.023,0,0,.003,0,.004,0,.009-.002.019-.005.029-.007,0,0,0,0,0,0,.021-.005.04-.01.061-.015.001,0,.002,0,.003,0,.008-.002.019-.005.026-.007.001,0,.003,0,.004-.001.031-.008.06-.015.091-.023,0,0,.001,0,.002,0,.031-.008.06-.016.091-.024,0,0,.001,0,.002,0,.01-.003.019-.005.029-.008h0c.031-.008.061-.016.092-.025h0c.031-.008.062-.016.092-.025h0c.65-.174,1.293-.364,1.93-.568l-3.977-12.377h0ZM154.042,58.186c-1.768,2.412-3.894,4.523-6.318,6.275l7.615,10.536c.359-.26.715-.525,1.065-.796,0,0,0,0,0,0,.008-.006.015-.011.023-.018.001,0,.002-.001.003-.002.008-.006.015-.011.023-.018,0,0,0,0,0,0,.016-.013.032-.025.049-.038,0,0,0,0,.001-.001.007-.006.014-.011.022-.017.001-.001.003-.002.004-.003.006-.005.014-.011.021-.016,0,0,.002-.001.003-.002.008-.006.015-.012.024-.018,0,0,0,0,0,0,.008-.006.016-.013.024-.019h0c.007-.006.015-.012.022-.018.002-.001.003-.003.005-.004.006-.005.012-.01.019-.015.002-.001.004-.003.005-.004.005-.004.012-.009.017-.013.002-.002.004-.003.007-.005.014-.011.031-.025.045-.036.002-.002.004-.003.006-.005.006-.005.01-.008.016-.013.002-.002.005-.004.008-.006.005-.004.009-.007.014-.011.003-.002.006-.005.009-.007.006-.005.011-.009.017-.014.001-.001.003-.002.005-.004.007-.006.015-.012.022-.018.002-.002.005-.004.008-.006.005-.004.01-.008.015-.012.003-.002.006-.005.009-.007.004-.003.009-.007.013-.01.004-.003.007-.005.01-.008.005-.004.008-.007.013-.011.003-.002.006-.005.009-.007.006-.005.012-.01.019-.015.003-.002.006-.005.009-.007.005-.004.011-.008.016-.013.003-.002.006-.005.009-.007.004-.003.009-.007.013-.01.004-.003.007-.006.011-.009.004-.003.007-.006.011-.009.004-.003.007-.006.011-.009.004-.003.007-.005.011-.009.007-.006.015-.012.023-.018.003-.002.006-.005.009-.007.004-.003.009-.007.013-.011.002-.002.006-.005.008-.006.005-.004.009-.007.014-.011.003-.002.006-.005.009-.007.004-.003.009-.007.013-.01.003-.002.005-.004.008-.007.004-.003.009-.007.013-.011.003-.002.005-.004.008-.007.008-.007.017-.013.025-.02.003-.002.005-.004.008-.007.005-.004.009-.008.014-.011.003-.002.005-.004.008-.006.005-.004.009-.007.014-.011.003-.002.005-.004.008-.007.005-.004.009-.008.014-.011.001,0,.004-.004.005-.004.017-.014.033-.027.05-.041.002-.002.004-.004.006-.005.005-.004.01-.008.015-.012.002-.002.003-.003.005-.004.005-.004.011-.009.016-.013.001,0,.003-.002.004-.003.025-.02.05-.041.074-.061.001,0,.002-.001.003-.002.006-.005.012-.01.018-.015.001,0,0,0,.001-.001.026-.021.051-.042.077-.063h0c.006-.006.011-.01.017-.015.002-.002.002-.002.004-.003.006-.005.012-.01.017-.015.001,0,0,0,0,0,.019-.016.039-.032.058-.048h0c.006-.005.012-.01.018-.015.001,0,.001-.001.002-.002.006-.005.012-.01.018-.015h.001c.026-.023.051-.044.077-.065h0c.006-.006.012-.011.019-.016h0c.071-.06.142-.12.213-.18h0c2.461-2.096,4.675-4.474,6.589-7.085l-10.484-7.687h0ZM159.518,41.53c-.012,3.004-.488,5.955-1.414,8.771l12.349,4.063c.063-.191.125-.384.185-.576h0c.003-.01.006-.02.009-.03h0c.009-.031.019-.06.028-.091,0,0,0,0,0-.001.009-.03.018-.06.028-.09,0,0,0,0,0,0,.003-.01.006-.019.009-.029,0,0,0-.001,0-.002.006-.02.012-.039.018-.06,0,0,0,0,0-.001.003-.01.005-.018.009-.028,0,0,0-.003.001-.004.003-.009.005-.018.008-.027,0,0,0-.001,0-.002.006-.02.012-.039.018-.059,0-.001,0-.003.001-.004.002-.008.005-.017.008-.025,0-.001.001-.003.001-.005.003-.009.005-.018.008-.027,0,0,0-.001,0-.002.003-.01.006-.02.009-.03,0,0,0,0,0,0,.003-.009.005-.018.008-.027,0-.002.001-.005.002-.007.002-.008.005-.016.007-.024,0-.002,0-.003.001-.005.006-.019.011-.038.017-.057,0-.002.001-.005.002-.007.002-.008.004-.014.006-.022,0-.003.002-.005.002-.008.002-.008.005-.015.007-.023,0-.002,0-.003.001-.005.003-.01.005-.019.008-.029,0,0,0-.002,0-.002.002-.008.005-.018.008-.026,0-.002.001-.004.002-.007.002-.008.004-.014.006-.021,0-.003.002-.006.003-.009.002-.008.005-.018.007-.025,0-.001,0-.002,0-.003.003-.01.005-.018.008-.029,0-.002.001-.004.002-.006.002-.008.004-.015.007-.023,0-.002.001-.005.002-.008.002-.008.004-.014.006-.022,0-.002.001-.004.002-.007.005-.018.011-.038.016-.056,0-.003.002-.006.002-.009.002-.008.004-.012.006-.02,0-.003.002-.006.003-.009.002-.006.004-.014.006-.021,0-.003.001-.005.002-.007.003-.009.005-.018.008-.027,0-.003.002-.006.002-.008.002-.006.004-.014.006-.02,0-.003.002-.006.003-.01.002-.006.004-.013.006-.02,0-.003.002-.005.002-.008.003-.009.005-.019.008-.028,0-.002,0-.003.001-.004.002-.008.005-.016.007-.024,0-.003.002-.006.002-.009.002-.008.003-.012.006-.02,0-.003.002-.006.003-.009.002-.008.004-.014.006-.021,0-.003.001-.005.002-.007.003-.01.005-.017.008-.027,0-.003.002-.006.002-.009.002-.006.004-.013.005-.02,0-.003.002-.006.003-.01.002-.006.004-.013.005-.019,0-.003.002-.006.003-.01.002-.008.005-.017.007-.025,0,0,0-.002,0-.003.002-.009.005-.018.007-.027,0-.003.002-.006.003-.009.002-.006.004-.013.005-.019,0-.003.002-.007.003-.01.002-.006.004-.014.005-.02,0-.003.001-.006.002-.008.002-.009.005-.018.007-.027,0-.003.002-.006.002-.008.002-.006.004-.013.005-.02.001-.004.002-.007.003-.011.001-.005.003-.012.005-.017.001-.004.002-.007.003-.011.002-.008.004-.014.006-.021,0-.002.001-.004.002-.006.002-.009.005-.018.007-.027,0-.003.002-.006.002-.009.002-.006.003-.012.005-.018.001-.004.002-.008.003-.011.002-.006.003-.012.005-.019,0-.003.002-.006.002-.009.002-.009.005-.019.007-.028,0-.001,0-.002,0-.003.002-.008.004-.016.006-.024,0-.004.002-.007.003-.011.001-.005.003-.012.004-.017.001-.004.002-.008.003-.012.002-.006.003-.013.005-.019,0-.003.001-.005.002-.008.002-.009.005-.018.007-.027,0-.004.002-.007.003-.011.002-.006.003-.011.005-.018,0-.004.002-.008.003-.011.001-.005.003-.013.005-.018,0-.004.002-.007.003-.01.002-.008.005-.018.007-.025,0-.003.002-.006.002-.009.002-.006.004-.014.005-.02.001-.004.002-.008.003-.012l.004-.016s.002-.009.003-.013c.001-.005.003-.01.004-.015.001-.005.002-.009.003-.013.002-.008.004-.017.006-.025.001-.004.002-.008.003-.013.002-.006.002-.009.004-.016.001-.004.002-.008.003-.012.001-.005.003-.012.004-.018,0-.004.002-.007.003-.011.002-.006.004-.014.005-.02.001-.005.002-.009.003-.014.002-.006.004-.015.005-.021,0-.004.002-.007.003-.01.001-.005.003-.013.005-.018,0-.004.002-.008.003-.011.002-.006.003-.011.004-.018,0-.004.002-.007.003-.011.002-.008.005-.018.007-.026,0-.003.002-.007.003-.01.002-.006.003-.013.005-.019l.003-.01c.001-.005.003-.014.005-.019,0-.003.002-.007.003-.01.002-.008.004-.014.006-.022,0-.002.001-.004.002-.006.002-.009.005-.018.007-.027,0-.003.002-.006.002-.009.002-.006.003-.013.005-.02,0-.003.001-.006.002-.009.002-.008.003-.014.005-.021,0-.003.001-.005.002-.007.002-.009.005-.02.007-.029,0,0,0-.002,0-.002.002-.008.004-.018.006-.025,0-.003.002-.007.002-.01.002-.006.003-.013.005-.019,0-.003.002-.006.002-.01.002-.008.004-.016.006-.024,0-.001,0-.003.001-.004.002-.009.005-.019.007-.028,0-.003.001-.006.002-.008.002-.007.003-.014.005-.02,0-.003.002-.007.002-.01.002-.008.003-.013.005-.021,0-.002.001-.005.002-.007.003-.01.004-.018.007-.029,0-.001,0-.002,0-.003.002-.008.004-.018.006-.026,0-.003.001-.006.002-.009l.005-.02s.002-.007.002-.01c.002-.008.003-.014.005-.021,0-.002.001-.005.002-.007.002-.009.004-.019.007-.028,0-.003.001-.006.002-.008.002-.007.003-.014.005-.021,0-.003.001-.006.002-.009.002-.008.003-.013.005-.021,0-.003.001-.006.002-.008.004-.018.009-.038.013-.057,0-.003.001-.006.002-.009.002-.007.003-.013.005-.02,0-.003.002-.007.002-.01.002-.007.003-.013.004-.019,0-.003.002-.007.002-.01.002-.009.004-.018.006-.027,0-.003.001-.005.002-.008.001-.007.003-.015.005-.021,0-.004.002-.007.002-.01.001-.005.003-.014.004-.019,0-.003.001-.006.002-.009.002-.008.004-.016.005-.024,0-.002,0-.003.001-.005.002-.009.004-.019.006-.029,0-.002.001-.005.002-.007.002-.008.003-.014.005-.022,0-.003.001-.006.002-.009.002-.008.003-.015.005-.023,0-.002,0-.004.001-.005.002-.01.004-.019.007-.03,0,0,0,0,0-.001.002-.009.004-.018.006-.028,0-.002.001-.005.002-.007.002-.008.003-.014.005-.022,0-.003.001-.005.002-.008.004-.02.009-.038.013-.058,0-.002,0-.004.001-.006.002-.008.004-.016.005-.024,0-.002,0-.004.001-.007.002-.008.004-.017.005-.025,0-.002,0-.003.001-.005.004-.02.009-.039.013-.059,0-.003.001-.005.002-.008.002-.008.003-.015.005-.023,0-.002,0-.004.001-.006.002-.009.004-.018.006-.027,0,0,0-.002,0-.002.002-.01.004-.02.007-.03,0,0,0-.002,0-.002.002-.009.004-.018.006-.027,0-.002,0-.004.001-.006.002-.008.004-.018.006-.026,0-.001,0-.002,0-.004.004-.021.008-.039.013-.06,0-.002,0-.003,0-.004.002-.008.004-.017.005-.025,0-.002,0-.004.001-.007.002-.009.004-.018.006-.027,0,0,0-.001,0-.002.002-.011.004-.02.006-.031,0,0,0,0,0-.002.002-.011.004-.018.006-.028,0-.001,0-.003,0-.004.002-.008.004-.018.005-.026,0-.002,0-.003,0-.004.004-.021.008-.04.013-.061,0,0,0-.001,0-.002.002-.009.004-.019.006-.028,0-.002,0-.003,0-.004.002-.009.004-.019.006-.029,0,0,0,0,0-.001.004-.021.008-.04.013-.061,0-.001,0-.002,0-.004.002-.009.004-.019.006-.028,0,0,0-.002,0-.003.006-.032.012-.061.019-.092,0-.001,0-.002,0-.003.006-.032.012-.062.018-.093,0,0,0,0,0,0,.002-.011.004-.02.006-.031,0,0,0,0,0,0,.5-2.544.767-5.171.777-7.858l-13-.053h0ZM164.726,17.226l-10.547,7.601c1.747,2.424,3.092,5.088,3.997,7.918l12.382-3.96c-.159-.498-.328-.992-.505-1.481h0c-.003-.008-.005-.016-.008-.023,0-.001,0-.002-.001-.003-.003-.008-.005-.015-.008-.022h0c-.008-.024-.017-.048-.025-.071,0-.001,0,0,0-.002-.003-.007-.005-.014-.008-.021,0-.002-.001-.003-.002-.005-.002-.007-.005-.013-.007-.02,0-.002-.001-.003-.002-.005-.008-.021-.015-.042-.023-.063,0-.001-.002-.005-.002-.006-.002-.006-.004-.012-.006-.017-.001-.004-.002-.006-.004-.01-.002-.006-.004-.011-.006-.016-.001-.004-.002-.006-.004-.01-.002-.005-.004-.011-.006-.017-.001-.004-.002-.006-.004-.01-.004-.01-.007-.019-.011-.028-.002-.005-.003-.007-.005-.012-.002-.005-.004-.01-.005-.015-.001-.004-.003-.009-.005-.013-.002-.004-.003-.009-.005-.013-.002-.005-.004-.01-.006-.015-.001-.004-.003-.008-.005-.012-.003-.007-.006-.015-.008-.022,0-.001-.001-.003-.001-.004-.003-.009-.007-.017-.01-.026-.001-.004-.003-.008-.004-.011-.002-.006-.004-.01-.006-.016-.001-.004-.003-.008-.004-.012-.002-.005-.004-.011-.006-.016-.001-.004-.003-.007-.004-.011-.002-.006-.005-.014-.008-.02,0-.002-.002-.004-.003-.007-.003-.009-.007-.018-.01-.026-.001-.003-.002-.006-.003-.009-.002-.006-.005-.013-.007-.019-.001-.003-.002-.006-.003-.009-.003-.007-.005-.012-.007-.019-.001-.003-.002-.006-.003-.008-.003-.007-.006-.016-.009-.023,0-.001,0-.003-.001-.004-.004-.01-.007-.018-.011-.028,0-.001-.001-.003-.002-.004-.003-.007-.006-.017-.009-.024,0-.002-.001-.004-.002-.005-.003-.007-.006-.016-.009-.023,0-.002-.001-.004-.002-.006-.003-.009-.007-.018-.01-.026,0,0,0,0,0,0-.008-.02-.015-.038-.022-.058,0,0,0-.002,0-.002-.003-.009-.007-.017-.01-.026,0-.001-.001-.003-.002-.004-.003-.009-.007-.019-.011-.027,0,0,0,0,0,0-.008-.02-.015-.039-.023-.059,0,0,0,0,0,0-.004-.01-.007-.018-.011-.028,0,0,0-.002-.001-.003-.004-.01-.007-.018-.011-.028,0,0,0,0,0,0-.012-.029-.023-.058-.034-.087,0,0,0-.001,0-.002-.706-1.781-1.531-3.501-2.466-5.151,0,0,0,0,0-.001-.021-.036-.04-.071-.061-.107,0,0,0-.001-.001-.002-.005-.009-.009-.016-.014-.025,0,0,0,0,0-.001-.016-.027-.03-.052-.046-.079,0-.001-.001-.002-.002-.004-.004-.007-.009-.016-.013-.023,0,0-.001-.002-.002-.003-.005-.009-.009-.016-.014-.025,0,0,0,0,0-.001-.01-.018-.02-.035-.031-.053,0,0-.001-.002-.002-.003-.004-.007-.01-.016-.013-.023,0-.001-.001-.002-.002-.004-.005-.009-.009-.015-.014-.024,0,0,0-.001-.001-.002-.01-.018-.02-.034-.031-.052,0-.001-.001-.002-.002-.003-.004-.007-.009-.016-.013-.022,0-.002-.002-.003-.003-.005-.004-.007-.009-.015-.013-.021,0-.002-.002-.003-.003-.004-.011-.018-.02-.034-.03-.052,0-.001-.001-.002-.002-.004-.004-.007-.009-.015-.013-.022-.001-.002-.002-.004-.003-.006-.004-.007-.008-.013-.012-.02-.001-.002-.003-.004-.004-.007-.004-.007-.009-.015-.013-.022,0,0-.001-.002-.002-.003-.005-.009-.009-.016-.015-.025-.001-.002-.003-.004-.004-.006-.003-.006-.008-.013-.011-.019-.001-.002-.003-.005-.004-.007-.003-.006-.007-.011-.01-.017-.002-.003-.003-.006-.005-.009-.003-.006-.007-.012-.01-.017-.001-.002-.003-.005-.005-.008-.005-.008-.01-.017-.014-.024,0-.002-.002-.003-.003-.005-.004-.007-.008-.013-.012-.02-.002-.003-.003-.006-.005-.009-.003-.004-.007-.011-.009-.016-.002-.003-.004-.007-.006-.01-.003-.006-.006-.01-.009-.016-.002-.003-.003-.006-.005-.009-.003-.006-.007-.012-.01-.017-.003-.005-.007-.011-.01-.016-.003-.004-.006-.01-.009-.015-.002-.004-.004-.007-.006-.011-.003-.004-.006-.009-.008-.014-.002-.004-.004-.007-.007-.011-.003-.004-.005-.009-.008-.013-.002-.004-.005-.008-.007-.012-.003-.004-.004-.006-.007-.011-.005-.008-.009-.016-.014-.024-.002-.003-.005-.008-.007-.011-.003-.004-.005-.008-.008-.013-.002-.003-.005-.008-.007-.012-.003-.005-.006-.009-.008-.014-.002-.003-.004-.006-.006-.01-.003-.005-.006-.01-.009-.014-.001-.002-.004-.006-.005-.008-.007-.011-.014-.022-.02-.034,0-.001-.002-.003-.002-.004-.003-.005-.006-.01-.009-.015-.001-.002-.004-.006-.005-.008-.003-.005-.006-.01-.009-.015-.001-.002-.004-.007-.005-.009-.003-.005-.006-.01-.009-.015-.001-.002-.003-.005-.005-.007-.011-.019-.023-.037-.034-.056,0-.001-.002-.003-.003-.005-.004-.006-.007-.012-.011-.018,0-.001-.002-.004-.003-.005-.004-.006-.007-.012-.011-.018-.001-.002-.002-.003-.003-.005-.016-.027-.033-.053-.049-.08,0-.001-.002-.004-.003-.005-.004-.006-.008-.012-.011-.018,0-.001-.002-.003-.002-.004-.017-.027-.034-.055-.051-.082v-.002c-.005-.007-.009-.013-.014-.02,0-.001,0,0-.001-.002-.49-.785-1.005-1.552-1.544-2.301h0ZM144.113,2.084l-4.08,12.343c2.821.932,5.472,2.303,7.88,4.074l7.701-10.473c-.721-.53-1.458-1.036-2.213-1.52h0c-.114-.073-.228-.145-.342-.217,0,0,0,0,0,0-.07-.044-.141-.088-.211-.132h0c-.009-.006-.017-.011-.026-.017,0,0,0,0,0,0-.027-.016-.052-.032-.079-.048,0,0-.002,0-.002-.001-.009-.005-.015-.009-.024-.015,0,0-.001,0-.002-.001-.027-.016-.051-.032-.078-.048,0,0-.002-.001-.003-.002-.008-.005-.015-.009-.023-.014-.001,0-.002-.001-.003-.002-.009-.005-.016-.009-.024-.015,0,0,0,0-.001,0-.018-.011-.034-.021-.052-.032,0,0-.001,0-.002-.001-.009-.005-.015-.009-.024-.014,0,0-.002-.001-.003-.002-.008-.005-.016-.01-.024-.014,0,0-.002-.001-.003-.002-.018-.011-.035-.021-.052-.032,0,0,0,0-.001,0-.009-.005-.015-.009-.024-.015-.001,0-.002-.001-.003-.002-.007-.004-.015-.009-.022-.013-.002,0-.003-.002-.004-.003-.018-.011-.034-.02-.052-.031,0,0-.001,0-.002,0-.009-.005-.015-.009-.024-.014-.001,0-.002-.001-.004-.002-.007-.004-.016-.009-.022-.013-.001,0-.002-.001-.004-.002-.018-.011-.034-.02-.052-.031h0c-.008-.005-.017-.01-.025-.015-.002,0-.004-.002-.005-.003-.007-.004-.013-.008-.02-.012-.002-.001-.005-.003-.007-.004-.008-.005-.015-.009-.022-.013,0,0-.001,0-.002-.001-.018-.011-.034-.02-.052-.031-.001,0-.003-.002-.004-.002-.007-.004-.014-.008-.021-.012-.002-.001-.004-.003-.007-.004-.007-.004-.013-.008-.02-.012-.002-.001-.003-.002-.005-.003-.018-.011-.033-.019-.051-.03-.002,0-.004-.002-.005-.003-.007-.004-.012-.007-.019-.011-.003-.002-.006-.003-.009-.005-.007-.004-.011-.007-.018-.011-.002-.001-.004-.002-.006-.004-.008-.005-.016-.009-.024-.014,0,0,0,0-.001,0-.009-.005-.017-.01-.026-.015-.002-.001-.003-.002-.005-.003-.007-.004-.013-.007-.019-.011-.003-.002-.006-.003-.008-.005-.007-.004-.011-.006-.017-.01-.003-.002-.005-.003-.008-.005-.006-.003-.013-.008-.019-.011-.002-.001-.004-.003-.006-.004-.009-.005-.016-.009-.025-.014-.002-.001-.004-.002-.006-.004-.006-.003-.013-.007-.018-.011-.003-.002-.006-.004-.009-.005-.005-.003-.011-.006-.016-.009-.003-.002-.006-.004-.01-.005-.006-.003-.011-.006-.017-.009-.003-.002-.006-.003-.009-.005-.008-.005-.017-.01-.025-.014,0,0-.002,0-.003-.002-.007-.004-.015-.009-.022-.013-.003-.001-.006-.003-.008-.005-.006-.003-.012-.007-.018-.01-.002-.001-.005-.003-.007-.004-.007-.004-.013-.007-.02-.011-.002-.001-.004-.002-.006-.003-.017-.01-.034-.019-.051-.029-.003-.002-.005-.003-.008-.005-.006-.003-.012-.007-.017-.01-.003-.001-.006-.003-.008-.005-.006-.003-.012-.007-.018-.01-.003-.002-.005-.003-.008-.005-.007-.004-.016-.009-.023-.013,0,0-.001,0-.002-.001-.008-.004-.017-.01-.025-.014-.003-.001-.005-.003-.008-.004-.006-.003-.012-.007-.018-.01-.003-.002-.006-.003-.009-.005-.006-.003-.01-.006-.016-.009-.003-.002-.007-.004-.01-.006-.006-.003-.01-.006-.016-.009-.003-.002-.006-.004-.009-.005-.007-.004-.017-.009-.023-.013-.004-.002-.007-.004-.011-.006-.005-.003-.009-.005-.014-.008-.004-.002-.008-.004-.011-.006-.005-.003-.01-.006-.014-.008-.004-.002-.007-.004-.01-.006-.006-.003-.012-.007-.017-.01-.002-.001-.005-.003-.007-.004-.009-.005-.015-.009-.025-.014-.003-.002-.005-.003-.008-.004-.006-.003-.012-.007-.018-.01-.003-.002-.006-.003-.009-.005-.005-.003-.011-.006-.015-.008-.004-.002-.007-.004-.011-.006-.005-.003-.009-.005-.014-.008-.004-.002-.008-.004-.012-.006-.005-.003-.009-.005-.013-.007-.007-.004-.014-.008-.021-.012-.005-.003-.008-.005-.013-.007-.004-.002-.008-.004-.012-.007-.005-.003-.009-.005-.013-.007-.004-.002-.008-.004-.012-.007-.005-.003-.009-.005-.013-.007-.004-.002-.008-.004-.012-.006-.005-.003-.009-.005-.014-.008-.007-.004-.012-.007-.019-.01-.005-.003-.011-.006-.016-.009-.004-.002-.008-.004-.011-.006-.005-.003-.009-.005-.013-.007-.004-.002-.008-.005-.012-.007-.005-.002-.008-.004-.012-.007-.004-.002-.009-.005-.013-.007-.005-.002-.007-.004-.012-.006-.007-.004-.015-.008-.022-.012-.005-.002-.009-.005-.013-.007-.005-.003-.009-.005-.014-.008-.003-.002-.008-.004-.011-.006-.005-.003-.009-.005-.014-.007l-.011-.006s-.009-.005-.013-.007c-.003-.002-.008-.004-.011-.006-.005-.003-.01-.005-.014-.008h-.001c-.011-.007-.023-.013-.034-.019-.005-.002-.007-.004-.012-.006-.004-.002-.009-.005-.013-.007-.005-.002-.008-.004-.012-.007-.004-.002-.009-.005-.013-.007-.003-.002-.007-.004-.011-.006-.005-.003-.01-.005-.015-.008-.002-.001-.005-.003-.008-.004-.01-.005-.02-.01-.029-.016-.003-.002-.007-.004-.01-.006-.005-.003-.009-.005-.014-.008-.003-.002-.007-.004-.011-.006-.005-.002-.009-.005-.014-.007-.003-.002-.008-.004-.011-.006-.005-.002-.01-.005-.014-.008-.003-.002-.007-.004-.011-.006-.009-.005-.018-.009-.026-.014-.003-.002-.007-.004-.01-.005-.005-.003-.01-.005-.015-.008-.003-.002-.007-.004-.01-.005-.005-.003-.01-.005-.015-.008-.003-.002-.006-.003-.009-.005-.005-.003-.011-.006-.016-.008-.002-.001-.006-.003-.008-.004-.018-.009-.036-.019-.054-.028-.002-.001-.007-.004-.009-.005-.005-.002-.01-.005-.015-.008-.005-.002-.006-.003-.011-.006-.005-.002-.01-.005-.015-.008-.003-.002-.007-.003-.01-.005-.005-.002-.01-.005-.015-.008-.002-.001-.007-.004-.009-.005-.009-.005-.019-.01-.028-.015-.003-.002-.007-.004-.01-.005-.005-.003-.01-.005-.014-.008-.003-.002-.007-.004-.01-.005l-.015-.008s-.007-.004-.011-.006c-.005-.003-.009-.005-.014-.007-.005-.002-.009-.004-.013-.007-.008-.004-.016-.008-.024-.013-.003-.002-.006-.003-.01-.005-.005-.003-.01-.005-.015-.008-.003-.002-.006-.003-.01-.005-.005-.003-.011-.005-.016-.008-.003-.002-.005-.003-.008-.004-.005-.003-.011-.006-.016-.008-.003-.002-.004-.002-.008-.004-.012-.006-.024-.012-.036-.018-.001,0-.002-.001-.003-.002-.006-.003-.012-.006-.017-.009-.002-.001-.005-.002-.007-.004-.006-.003-.011-.006-.017-.009-.002-.001-.006-.003-.008-.004-.005-.003-.011-.006-.017-.009-.001,0-.004-.002-.005-.003-.019-.01-.038-.02-.057-.029-.002-.001-.006-.003-.008-.004-.006-.003-.011-.006-.017-.008-.002-.001-.005-.003-.008-.004-.006-.003-.011-.006-.017-.009-.002-.001-.005-.003-.008-.004-.019-.01-.038-.019-.057-.029-.002-.001-.004-.002-.006-.003-.006-.003-.012-.006-.018-.009-.002-.001-.005-.003-.007-.004-.006-.003-.011-.006-.017-.009-.002-.001-.005-.003-.007-.004-.006-.003-.012-.006-.018-.009-.001,0,0,0-.002,0-.013-.007-.027-.014-.04-.02-.001,0-.003-.001-.004-.002l-.018-.009s-.005-.002-.007-.004c-.006-.003-.011-.006-.017-.009-.004-.002-.004-.002-.007-.004-.006-.003-.012-.006-.018-.009h-.001c-.021-.011-.042-.021-.063-.032-.002-.001-.005-.002-.007-.004-.005-.003-.011-.006-.017-.008-.002-.001-.005-.003-.007-.004-.006-.003-.012-.006-.017-.009-.002-.001-.005-.002-.007-.003-.019-.009-.038-.019-.057-.028-.002-.001-.006-.003-.008-.004-.005-.003-.011-.005-.016-.008-.002-.001-.006-.003-.008-.004-.006-.003-.011-.006-.017-.008-.002-.001-.004-.002-.006-.003-.02-.01-.041-.02-.061-.03-.001,0-.002-.001-.004-.002-.006-.003-.012-.006-.018-.009-.002-.001-.004-.002-.007-.003-.006-.003-.012-.006-.018-.009-.002-.001-.005-.002-.007-.003-.021-.01-.042-.021-.064-.031h0c-.006-.003-.013-.006-.019-.009-.001,0-.005-.003-.006-.003-.006-.003-.012-.006-.018-.009-.001,0-.004-.002-.006-.003-.006-.003-.013-.006-.019-.009h-.001c-.021-.011-.042-.021-.063-.031-.002-.001-.004-.002-.007-.003-.006-.003-.012-.006-.018-.008-.002-.001-.005-.002-.007-.004-.006-.003-.012-.006-.018-.009-.001,0-.002-.001-.003-.002-.02-.01-.041-.02-.061-.029-.002-.001-.004-.002-.007-.003-.006-.003-.012-.006-.018-.008-.002-.001-.005-.002-.007-.003-.006-.003-.012-.005-.017-.008-.002-.001-.004-.002-.006-.003-.021-.01-.041-.02-.062-.029-.001,0-.002,0-.003-.001-.006-.003-.012-.006-.018-.009-.002-.001-.006-.003-.008-.004-.006-.003-.011-.005-.017-.008-.002-.001-.005-.002-.007-.003-.019-.009-.039-.018-.058-.027-.004-.002-.004-.002-.007-.004-.006-.003-.012-.005-.017-.008-.002-.001-.005-.002-.007-.003-.006-.003-.012-.006-.018-.008-.002-.001-.004-.002-.006-.003-.021-.01-.042-.02-.064-.03-.001,0,0,0-.002,0-.006-.003-.012-.006-.018-.008-.002-.001-.005-.002-.007-.003-.006-.003-.012-.005-.018-.008-.002-.001-.005-.002-.007-.003-.006-.003-.012-.006-.018-.008-.001,0-.005-.002-.006-.003-.02-.009-.04-.019-.061-.028-.002-.001-.003-.001-.005-.002-.006-.003-.012-.006-.019-.009-.002-.001-.004-.002-.007-.003-.006-.003-.013-.006-.019-.009-.001,0-.002-.001-.004-.002-.02-.009-.041-.019-.061-.028-.002-.001-.005-.002-.007-.003-.006-.003-.012-.005-.018-.008-.002-.001-.004-.002-.007-.003-.006-.003-.012-.006-.018-.008-.002-.001-.003-.002-.006-.003-.021-.01-.043-.02-.065-.03h0c-.007-.003-.013-.006-.02-.009-.001,0-.004-.002-.005-.002-.007-.003-.013-.006-.02-.009-.001,0-.003-.001-.004-.002-.007-.003-.014-.006-.021-.009h0c-.015-.007-.03-.014-.045-.02-.001,0,0,0-.001,0-.007-.003-.013-.006-.019-.009-.002-.001-.003-.002-.006-.003-.006-.003-.012-.006-.018-.008-.002-.001-.005-.002-.007-.003-.006-.003-.012-.005-.018-.008-.001,0-.004-.002-.005-.002-.02-.009-.04-.018-.061-.027-.002-.001-.005-.002-.007-.003-.006-.003-.012-.005-.018-.008-.002-.001-.005-.002-.008-.003-.006-.003-.011-.005-.018-.008-.002-.001-.005-.002-.007-.003-.02-.009-.04-.018-.061-.027-.001,0-.004-.002-.005-.002-.006-.003-.012-.005-.018-.008-.002-.001-.005-.002-.007-.003-.006-.003-.012-.005-.018-.008-.002-.001-.004-.002-.007-.003-.006-.003-.012-.005-.018-.008-.001,0,0,0-.002,0-.014-.006-.027-.012-.041-.018-.001,0-.004-.002-.005-.002-.006-.003-.012-.005-.018-.008-.002-.001-.005-.002-.007-.003-.006-.003-.012-.005-.017-.008-.002-.001-.006-.002-.008-.004-.006-.003-.012-.005-.018-.008h0c-.015-.007-.03-.013-.045-.02-.001,0,0,0-.001,0-.006-.003-.012-.005-.018-.008-.004-.002-.005-.002-.009-.004-.006-.002-.011-.005-.017-.007-.004-.002-.005-.002-.008-.004-.006-.003-.012-.005-.017-.008-.001,0-.004-.002-.006-.002-.021-.009-.041-.018-.061-.026-.002-.001-.004-.002-.006-.003-.006-.003-.012-.005-.018-.008-.002-.001-.006-.002-.008-.004-.006-.003-.011-.005-.017-.007-.002-.001-.005-.002-.008-.003-.02-.008-.039-.017-.058-.025-.002-.001-.006-.002-.008-.003-.006-.002-.011-.005-.017-.007-.002-.001-.006-.003-.009-.004-.005-.002-.011-.005-.017-.007-.002-.001-.006-.003-.009-.004-.019-.008-.039-.017-.058-.025-.004-.002-.004-.002-.008-.003-.005-.002-.01-.004-.015-.007-.004-.002-.007-.003-.011-.005-.005-.002-.011-.004-.016-.007-.004-.002-.006-.002-.01-.004-.006-.002-.011-.005-.016-.007-.002-.001-.004-.002-.006-.003-.011-.005-.022-.009-.033-.014-.004-.002-.006-.002-.01-.004-.005-.002-.01-.004-.015-.006-.004-.002-.007-.003-.011-.005-.005-.002-.01-.004-.015-.006-.004-.002-.007-.003-.011-.004-.005-.002-.011-.004-.016-.007-.004-.002-.005-.002-.009-.004-.011-.004-.022-.009-.032-.013-.002-.001-.006-.002-.008-.003-.005-.002-.01-.004-.015-.006-.004-.002-.008-.003-.012-.005-.005-.002-.01-.004-.015-.006-.004-.002-.007-.003-.011-.004-.005-.002-.01-.004-.015-.006-.005-.002-.007-.003-.011-.005-.009-.004-.018-.008-.027-.011-.004-.001-.008-.003-.012-.005-.005-.002-.009-.004-.014-.006-.005-.002-.008-.003-.013-.005-.004-.002-.009-.004-.014-.006-.005-.002-.009-.004-.014-.006-.004-.002-.009-.004-.013-.005-.004-.001-.009-.004-.012-.005-.005-.002-.01-.004-.014-.006-.005-.002-.008-.003-.013-.005-.008-.003-.016-.007-.024-.01-.005-.002-.008-.003-.013-.005-.005-.002-.009-.004-.014-.006-.004-.001-.009-.004-.013-.005-.005-.002-.009-.004-.014-.006-.004-.001-.009-.004-.013-.005-.005-.002-.009-.004-.014-.006-.006-.002-.011-.004-.017-.007-.005-.002-.01-.004-.016-.006-.006-.002-.012-.005-.018-.007-.004-.002-.008-.003-.013-.005-.005-.002-.01-.004-.014-.006-.004-.002-.009-.003-.013-.005-.005-.002-.009-.003-.013-.005-.004-.002-.009-.004-.013-.005-.006-.002-.01-.004-.016-.006-.004-.002-.008-.003-.012-.005-.007-.003-.016-.006-.023-.009-.004-.001-.008-.003-.011-.005-.006-.002-.01-.004-.016-.006-.003-.001-.007-.003-.011-.004-.005-.002-.012-.005-.016-.007-.004-.001-.008-.003-.011-.005-.006-.002-.011-.005-.018-.007-.003-.001-.006-.002-.009-.004-.009-.003-.017-.007-.026-.01-.004-.001-.007-.003-.011-.004-.006-.002-.01-.004-.016-.006-.004-.002-.008-.003-.012-.005-.005-.002-.009-.004-.014-.006-.004-.002-.009-.004-.013-.005-.006-.002-.009-.004-.016-.006-.004-.001-.007-.003-.011-.004-.009-.003-.017-.007-.026-.01-.002,0-.005-.002-.007-.003-.006-.002-.013-.005-.019-.008-.003-.001-.007-.003-.011-.004-.005-.002-.011-.004-.016-.006-.004-.002-.008-.003-.012-.005-.005-.002-.011-.004-.016-.006-.004-.001-.007-.003-.011-.004-.007-.003-.015-.006-.022-.009-.003-.001-.006-.002-.01-.004-.007-.003-.014-.005-.021-.008-.003-.001-.006-.003-.01-.004-.006-.002-.011-.004-.017-.007-.004-.001-.007-.003-.011-.004-.006-.002-.012-.005-.018-.007-.003-.001-.006-.002-.009-.003-.007-.003-.015-.006-.023-.009-.001,0-.003-.001-.005-.002-.009-.003-.018-.007-.027-.01-.002,0-.005-.002-.007-.003-.006-.002-.013-.005-.02-.008-.003-.001-.007-.003-.01-.004-.005-.002-.013-.005-.018-.007-.003-.001-.006-.002-.009-.003-.007-.003-.014-.005-.021-.008-.002,0-.004-.002-.006-.002-.01-.004-.018-.007-.028-.011-.001,0-.003-.001-.005-.002-.007-.003-.015-.006-.022-.008-.003-.001-.006-.002-.009-.003-.007-.003-.013-.005-.02-.008-.002,0-.005-.002-.007-.003-.007-.003-.015-.006-.023-.009-.001,0-.003-.001-.005-.002-.018-.007-.037-.014-.056-.021-.002,0-.004-.002-.006-.002-.007-.003-.015-.006-.022-.008-.002,0-.004-.001-.006-.002-.007-.003-.017-.006-.024-.009-.001,0-.003,0-.004-.002-.019-.007-.037-.014-.056-.021-.002,0-.005-.002-.007-.003-.007-.003-.014-.005-.022-.008-.002,0-.004-.002-.006-.002-.007-.003-.014-.005-.022-.008-.002,0-.004-.002-.007-.002-.019-.007-.038-.014-.056-.021-.001,0-.003,0-.004-.001-.007-.003-.016-.006-.024-.009-.002,0-.005-.002-.007-.003-.007-.003-.015-.005-.022-.008-.002,0-.004-.002-.006-.002-.019-.007-.038-.014-.056-.021-.001,0-.003,0-.004-.002-.007-.003-.017-.006-.024-.009-.002,0-.004-.001-.005-.002-.007-.003-.017-.006-.024-.009-.001,0-.002,0-.004-.001-.01-.004-.018-.007-.028-.01h0c-.02-.007-.039-.014-.059-.021,0,0-.002,0-.003,0-.009-.003-.017-.006-.026-.009-.001,0-.003-.001-.004-.002-.009-.003-.019-.007-.027-.01h0c-.02-.007-.039-.014-.059-.021,0,0,0,0,0,0-.009-.003-.019-.007-.027-.01-.001,0-.003,0-.004-.001-.009-.003-.018-.007-.027-.01,0,0,0,0-.001,0-.03-.011-.059-.021-.089-.032h0c-.27-.096-.543-.189-.815-.279h0ZM131.107,0v13h.158S131.335,0,131.335,0c-.037,0-.074,0-.111,0-.001,0-.004,0-.006,0-.007,0-.014,0-.021,0-.004,0-.009,0-.013,0-.005,0-.011,0-.016,0-.007,0-.012,0-.019,0-.004,0-.007,0-.011,0-.01,0-.022,0-.031,0h0Z" fill="#a4ffbc" stroke-width="0"/>
  </g>
</svg>