<?xml version="1.0" encoding="UTF-8"?>
<svg id="b" data-name="레이어 2" xmlns="http://www.w3.org/2000/svg" width="511.603" height="72.56" viewBox="0 0 511.603 72.56">
  <g id="c" data-name="레이어 1">
    <g>
      <path d="M12.06,9.782v19.765l12.864.067V9.849h7.772v47.302h-7.772v-19.765l-12.864-.067v19.765h-7.772V9.782h7.772Z" fill="#a4ffbc" stroke-width="0"/>
      <path d="M47.971,55.308c-2.725-1.585-4.88-3.74-6.465-6.465-1.586-2.724-2.378-5.695-2.378-8.911s.792-6.174,2.378-8.877c1.585-2.702,3.741-4.846,6.465-6.432,2.724-1.585,5.695-2.379,8.911-2.379s6.174.794,8.877,2.379c2.702,1.586,4.846,3.73,6.432,6.432,1.585,2.703,2.378,5.662,2.378,8.877s-.793,6.188-2.378,8.911c-1.586,2.725-3.73,4.88-6.432,6.465-2.703,1.586-5.661,2.379-8.877,2.379s-6.187-.793-8.911-2.379ZM61.974,48.81c1.563-.915,2.802-2.166,3.718-3.752.915-1.585,1.374-3.294,1.374-5.126s-.458-3.528-1.374-5.092c-.916-1.563-2.155-2.802-3.718-3.718-1.564-.915-3.261-1.374-5.092-1.374s-3.541.458-5.125,1.374c-1.586.916-2.837,2.155-3.752,3.718-.916,1.564-1.374,3.261-1.374,5.092,0,1.876.458,3.596,1.374,5.159.915,1.564,2.154,2.804,3.719,3.719,1.563.916,3.283,1.374,5.159,1.374,1.831,0,3.528-.458,5.092-1.374ZM69.411,22.78h5.092v34.371h-5.092V22.78Z" fill="#a4ffbc" stroke-width="0"/>
      <path d="M91.453,55.308c-2.725-1.585-4.88-3.74-6.465-6.465-1.586-2.724-2.378-5.695-2.378-8.911s.792-6.174,2.378-8.877c1.585-2.702,3.741-4.846,6.465-6.432,2.724-1.585,5.695-2.379,8.911-2.379s6.175.794,8.877,2.379c2.702,1.586,4.846,3.73,6.432,6.432,1.585,2.703,2.378,5.662,2.378,8.877s-.793,6.188-2.378,8.911c-1.586,2.725-3.73,4.88-6.432,6.465-2.703,1.586-5.661,2.379-8.877,2.379s-6.187-.793-8.911-2.379ZM82.609,22.78h5.092v15.678l2.412,1.005v31.087h-7.504V22.78ZM105.457,48.81c1.563-.915,2.802-2.166,3.718-3.752.915-1.585,1.374-3.294,1.374-5.126s-.458-3.528-1.374-5.092c-.916-1.563-2.155-2.802-3.718-3.718-1.564-.915-3.261-1.374-5.092-1.374s-3.541.458-5.125,1.374c-1.586.916-2.837,2.155-3.752,3.718-.916,1.564-1.374,3.261-1.374,5.092,0,1.876.458,3.596,1.374,5.159.915,1.564,2.154,2.804,3.719,3.719,1.563.916,3.283,1.374,5.159,1.374,1.831,0,3.528-.458,5.092-1.374Z" fill="#a4ffbc" stroke-width="0"/>
      <path d="M133.059,55.308c-2.725-1.585-4.88-3.74-6.465-6.465-1.586-2.724-2.378-5.695-2.378-8.911s.792-6.174,2.378-8.877c1.585-2.702,3.741-4.846,6.465-6.432,2.724-1.585,5.695-2.379,8.911-2.379s6.175.794,8.877,2.379c2.702,1.586,4.846,3.73,6.432,6.432,1.585,2.703,2.378,5.662,2.378,8.877s-.793,6.188-2.378,8.911c-1.586,2.725-3.73,4.88-6.432,6.465-2.703,1.586-5.661,2.379-8.877,2.379s-6.187-.793-8.911-2.379ZM124.215,22.78h5.092v15.678l2.412,1.005v31.087h-7.504V22.78ZM147.062,48.81c1.563-.915,2.802-2.166,3.718-3.752.915-1.585,1.374-3.294,1.374-5.126s-.458-3.528-1.374-5.092c-.916-1.563-2.155-2.802-3.718-3.718-1.564-.915-3.261-1.374-5.092-1.374s-3.541.458-5.125,1.374c-1.586.916-2.837,2.155-3.752,3.718-.916,1.564-1.374,3.261-1.374,5.092,0,1.876.458,3.596,1.374,5.159.915,1.564,2.154,2.804,3.719,3.719,1.563.916,3.283,1.374,5.159,1.374,1.831,0,3.528-.458,5.092-1.374Z" fill="#a4ffbc" stroke-width="0"/>
      <path d="M173.058,51.255l-12.328-28.475h8.308l7.906,19.564,7.772-19.564h8.375l-19.028,44.22h-8.308l7.303-15.745Z" fill="#a4ffbc" stroke-width="0"/>
      <path d="M224.848,5.963h.134l17.018,40.2,12.194-36.314h7.236l-15.477,47.302h-7.638l-12.462-30.217-10.251,30.217h-7.772l17.018-51.188Z" fill="#a4ffbc" stroke-width="0"/>
      <path d="M268.935,55.308c-2.726-1.585-4.881-3.74-6.466-6.465-1.586-2.724-2.379-5.695-2.379-8.911s.793-6.174,2.379-8.877c1.585-2.702,3.74-4.846,6.466-6.432,2.724-1.585,5.694-2.379,8.911-2.379,3.438,0,6.565.871,9.38,2.613,2.813,1.742,4.958,4.121,6.432,7.135,1.474,3.015,2.054,6.332,1.742,9.95h-31.624v-4.757h26.465l-2.211,2.01c-.09-1.786-.593-3.417-1.508-4.891-.916-1.474-2.133-2.624-3.651-3.45-1.519-.826-3.193-1.24-5.024-1.24-1.876,0-3.618.458-5.227,1.374-1.607.916-2.87,2.167-3.785,3.752-.916,1.586-1.374,3.316-1.374,5.192s.458,3.618,1.374,5.226c.915,1.608,2.178,2.871,3.785,3.786,1.608.916,3.351,1.374,5.227,1.374,1.785,0,3.417-.424,4.891-1.273,1.474-.848,2.635-2.032,3.484-3.551h8.441c-1.206,3.618-3.339,6.556-6.398,8.811-3.06,2.256-6.532,3.384-10.418,3.384-3.217,0-6.188-.793-8.911-2.379Z" fill="#a4ffbc" stroke-width="0"/>
      <path d="M296.605,22.78h8.776l7.37,19.363,9.112-18.693h.134l9.179,18.693,7.304-19.363h8.844l-15.075,36.783h-.134l-10.184-20.368-10.117,20.368h-.134l-15.075-36.783Z" fill="#a4ffbc" stroke-width="0"/>
      <path d="M371.844,33.098l-10.05-23.249h8.039l5.896,14.74,5.896-14.74h8.04l-9.982,23.249v24.053h-7.839v-24.053Z" fill="#a4ffbc" stroke-width="0"/>
      <path d="M397.169,55.308c-2.726-1.585-4.881-3.74-6.466-6.465-1.586-2.724-2.379-5.695-2.379-8.911s.793-6.174,2.379-8.877c1.585-2.702,3.74-4.846,6.466-6.432,2.724-1.585,5.694-2.379,8.911-2.379,3.438,0,6.565.871,9.38,2.613,2.813,1.742,4.958,4.121,6.432,7.135,1.474,3.015,2.054,6.332,1.742,9.95h-31.624v-4.757h26.465l-2.211,2.01c-.09-1.786-.593-3.417-1.508-4.891-.916-1.474-2.133-2.624-3.651-3.45-1.519-.826-3.193-1.24-5.024-1.24-1.876,0-3.618.458-5.227,1.374-1.607.916-2.87,2.167-3.785,3.752-.916,1.586-1.374,3.316-1.374,5.192s.458,3.618,1.374,5.226c.915,1.608,2.178,2.871,3.785,3.786,1.608.916,3.351,1.374,5.227,1.374,1.785,0,3.417-.424,4.891-1.273,1.474-.848,2.635-2.032,3.484-3.551h8.441c-1.206,3.618-3.339,6.556-6.398,8.811-3.06,2.256-6.532,3.384-10.418,3.384-3.217,0-6.188-.793-8.911-2.379Z" fill="#a4ffbc" stroke-width="0"/>
      <path d="M436.9,55.308c-2.726-1.585-4.881-3.74-6.466-6.465-1.586-2.724-2.379-5.695-2.379-8.911s.793-6.174,2.379-8.877c1.585-2.702,3.74-4.846,6.466-6.432,2.724-1.585,5.694-2.379,8.911-2.379s6.174.794,8.877,2.379c2.702,1.586,4.846,3.73,6.433,6.432,1.585,2.703,2.378,5.662,2.378,8.877s-.793,6.188-2.378,8.911c-1.587,2.725-3.73,4.88-6.433,6.465-2.703,1.586-5.661,2.379-8.877,2.379s-6.188-.793-8.911-2.379ZM450.903,48.81c1.562-.915,2.803-2.166,3.719-3.752.914-1.585,1.373-3.294,1.373-5.126s-.459-3.528-1.373-5.092c-.916-1.563-2.156-2.802-3.719-3.718-1.564-.915-3.261-1.374-5.092-1.374s-3.541.458-5.126,1.374c-1.586.916-2.837,2.155-3.752,3.718-.916,1.564-1.373,3.261-1.373,5.092,0,1.876.457,3.596,1.373,5.159.915,1.564,2.154,2.804,3.719,3.719,1.562.916,3.283,1.374,5.159,1.374,1.831,0,3.527-.458,5.092-1.374ZM458.339,22.78h5.092v34.371h-5.092V22.78Z" fill="#a4ffbc" stroke-width="0"/>
      <path d="M471.538,22.78h5.093v6.097l14.807-6.834v8.174l-12.127,5.762v21.172h-7.772V22.78Z" fill="#a4ffbc" stroke-width="0"/>
      <path d="M498.371,55.643c-1.005-1.005-1.508-2.222-1.508-3.651,0-1.34.503-2.512,1.508-3.517,1.005-1.005,2.199-1.508,3.585-1.508,1.429,0,2.635.502,3.617,1.508.982,1.005,1.475,2.177,1.475,3.517,0,1.43-.492,2.646-1.475,3.651s-2.188,1.508-3.617,1.508c-1.386,0-2.58-.503-3.585-1.508ZM497.131,9.849h9.647l-2.747,32.361h-4.087l-2.813-32.361Z" fill="#a4ffbc" stroke-width="0"/>
    </g>
  </g>
</svg>